<svg width="30" height="29" viewBox="0 0 30 29" fill="none" xmlns="http://www.w3.org/2000/svg">
<mask id="mask0_1186_3445" style="mask-type:luminance" maskUnits="userSpaceOnUse" x="0" y="0" width="30" height="29">
<path d="M15.0964 27.433C16.8117 27.4352 18.5105 27.0984 20.0952 26.442C21.6799 25.7855 23.1193 24.8224 24.3306 23.6079C25.5451 22.3966 26.5082 20.9572 27.1646 19.3725C27.8211 17.7878 28.1578 16.089 28.1556 14.3737C28.1578 12.6584 27.821 10.9596 27.1646 9.37491C26.5081 7.7902 25.545 6.35083 24.3306 5.13952C23.1193 3.92503 21.6799 2.96189 20.0952 2.30546C18.5105 1.64902 16.8117 1.31224 15.0964 1.31446C13.3811 1.31228 11.6823 1.64908 10.0976 2.30551C8.51286 2.96194 7.07349 3.92505 5.86217 5.13952C4.64771 6.35083 3.68459 7.7902 3.02816 9.37491C2.37173 10.9596 2.03493 12.6584 2.03712 14.3737C2.0349 16.089 2.37168 17.7878 3.02811 19.3725C3.68454 20.9572 4.64768 22.3966 5.86217 23.6079C7.07349 24.8224 8.51286 25.7855 10.0976 26.4419C11.6823 27.0983 13.3811 27.4351 15.0964 27.433Z" fill="#555555" stroke="white" stroke-width="2.61185" stroke-linejoin="round"/>
<path d="M9.87305 14.3738L13.7908 18.2916L21.6264 10.4561" stroke="white" stroke-width="2.61185" stroke-linecap="round" stroke-linejoin="round"/>
</mask>
<g mask="url(#mask0_1186_3445)">
<path d="M-0.574219 -1.29883H30.768V30.0434H-0.574219V-1.29883Z" fill="#00FF89"/>
</g>
</svg>
