<svg width="20" height="21" viewBox="0 0 20 21" fill="none" xmlns="http://www.w3.org/2000/svg">
<rect width="20" height="20" transform="translate(0 0.525879)" fill="black" fill-opacity="0.01"/>
<path fill-rule="evenodd" clip-rule="evenodd" d="M10.862 4.72115C11.1224 4.46079 11.5445 4.46079 11.8048 4.72115L17.1382 10.0545C17.3985 10.3148 17.3985 10.7369 17.1382 10.9973L11.8048 16.3307C11.5445 16.5909 11.1224 16.5909 10.862 16.3307C10.6017 16.0703 10.6017 15.6481 10.862 15.3877L15.0573 11.1925H3.33341C2.96523 11.1925 2.66675 10.8941 2.66675 10.5259C2.66675 10.1577 2.96523 9.85922 3.33341 9.85922H15.0573L10.862 5.66395C10.6017 5.4036 10.6017 4.9815 10.862 4.72115Z" fill="black"/>
</svg>
