<svg width="54" height="55" viewBox="0 0 54 55" fill="none" xmlns="http://www.w3.org/2000/svg">
<g clip-path="url(#clip0_1473_2518)">
<path d="M7.75539 48.8088L3.4436 0.446777H50.823L46.5066 48.8011L27.1043 54.1801L7.75539 48.8088Z" fill="#264DE4"/>
<path d="M42.811 45.7215L46.4997 4.40039H27.1331V50.0681L42.811 45.7215Z" fill="#2965F1"/>
<path d="M13.329 22.3366L13.8606 28.2679H27.1339V22.3366H13.329ZM12.8 16.2627H27.1339V10.3313H12.2607L12.8 16.2627ZM27.1339 37.7411L27.1078 37.748L20.502 35.9643L20.0798 31.2337H14.1255L14.9565 40.5469L27.1066 43.9199L27.1339 43.9122V37.7411Z" fill="#EBEBEB"/>
<path d="M27.1138 22.3366V28.2679H34.4176L33.7292 35.9605L27.1138 37.746V43.9169L39.2735 40.5469L39.3627 39.5447L40.7564 23.9293L40.9012 22.3366L41.972 10.3313H27.1138V16.2627H35.4717L34.9319 22.3366H27.1138Z" fill="white"/>
</g>
<defs>
<clipPath id="clip0_1473_2518">
<rect width="53.7333" height="53.7333" fill="white" transform="translate(0.266602 0.446777)"/>
</clipPath>
</defs>
</svg>
