<svg width="56" height="52" viewBox="0 0 56 52" fill="none" xmlns="http://www.w3.org/2000/svg">
<g clip-path="url(#clip0_1472_2244)">
<path d="M34.8487 24.5229L12.9072 20.6509V49.2612C12.9072 50.5678 13.9664 51.627 15.273 51.627H53.1337C54.4403 51.627 55.4995 50.5678 55.4995 49.2612V38.7203L34.8487 24.5229Z" fill="#185C37"/>
<path d="M34.8487 0H15.273C13.9664 0 12.9072 1.0592 12.9072 2.3658V12.9067L34.8487 25.8135L46.4647 29.6855L55.4995 25.8135V12.9067L34.8487 0Z" fill="#21A366"/>
<path d="M12.9072 12.9067H34.8487V25.8135H12.9072V12.9067Z" fill="#107C41"/>
<path opacity="0.1" d="M28.6109 10.3257H12.9072V42.5925H28.6109C29.9157 42.5883 30.9724 41.5316 30.9767 40.2267V12.6915C30.9724 11.3867 29.9157 10.3299 28.6109 10.3257Z" fill="black"/>
<path opacity="0.2" d="M27.3202 11.6167H12.9072V43.8835H27.3202C28.625 43.8793 29.6817 42.8226 29.686 41.5177V13.9825C29.6817 12.6777 28.625 11.6209 27.3202 11.6167Z" fill="black"/>
<path opacity="0.2" d="M27.3202 11.6167H12.9072V41.3022H27.3202C28.625 41.298 29.6817 40.2412 29.686 38.9364V13.9825C29.6817 12.6777 28.625 11.6209 27.3202 11.6167Z" fill="black"/>
<path opacity="0.2" d="M26.0295 11.6167H12.9072V41.3022H26.0295C27.3343 41.298 28.3911 40.2412 28.3953 38.9364V13.9825C28.3911 12.6777 27.3343 11.6209 26.0295 11.6167Z" fill="black"/>
<path d="M2.3658 11.6167H26.029C27.3356 11.6167 28.3948 12.6759 28.3948 13.9825V37.6457C28.3948 38.9523 27.3356 40.0115 26.029 40.0115H2.3658C1.0592 40.0115 0 38.9523 0 37.6457V13.9825C0 12.6759 1.0592 11.6167 2.3658 11.6167Z" fill="url(#paint0_linear_1472_2244)"/>
<path d="M7.32764 33.5035L12.3045 25.7918L7.74453 18.1226H11.4126L13.901 23.0271C14.1308 23.493 14.2882 23.8389 14.3734 24.0674H14.4057C14.5692 23.6957 14.7413 23.3347 14.922 22.9845L17.582 18.1252H20.9494L16.2733 25.7492L21.0682 33.5035H17.4853L14.6109 28.1201C14.4755 27.8911 14.3606 27.6505 14.2676 27.4012H14.225C14.1408 27.6454 14.0291 27.8793 13.892 28.0982L10.9325 33.5035H7.32764Z" fill="white"/>
<path d="M53.1334 0H34.8484V12.9067H55.4992V2.3658C55.4992 1.0592 54.44 0 53.1334 0Z" fill="#33C481"/>
<path d="M34.8484 25.813H55.4992V38.7197H34.8484V25.813Z" fill="#107C41"/>
</g>
<defs>
<linearGradient id="paint0_linear_1472_2244" x1="4.93275" y1="9.76811" x2="23.4621" y2="41.8601" gradientUnits="userSpaceOnUse">
<stop stop-color="#18884F"/>
<stop offset="0.5" stop-color="#117E43"/>
<stop offset="1" stop-color="#0B6631"/>
</linearGradient>
<clipPath id="clip0_1472_2244">
<rect width="55.499" height="51.627" fill="white"/>
</clipPath>
</defs>
</svg>
