<svg width="54" height="55" viewBox="0 0 54 55" fill="none" xmlns="http://www.w3.org/2000/svg">
<g clip-path="url(#clip0_1473_2511)">
<path d="M7.45118 48.7228L3.14832 0.446777H50.4798L46.177 48.7228L26.7616 54.1801" fill="#E34F26"/>
<path d="M26.8665 49.9819L42.5037 45.6791L46.1769 4.32959H26.8665" fill="#EF652A"/>
<path d="M26.8671 22.2758H18.996L18.4712 16.1889H26.8671V10.3118H26.7621H11.9645L12.0694 11.886L13.5387 28.2579H26.8671V22.2758ZM26.8671 37.7032H26.7621L20.1504 35.9191L19.7306 31.1964H16.5822H13.8535L14.5882 40.5368L26.7621 43.8951H26.8671V37.7032Z" fill="#EBEBEB"/>
<path d="M26.7614 22.2756V28.2576H34.1077L33.3731 35.9188L26.7614 37.7029V43.8949L38.9353 40.5365L39.0403 39.487L40.4046 23.8498L40.6145 22.2756H38.9353H26.7614ZM26.7614 10.3115V13.9847V16.1886H41.1392L41.2442 14.9292L41.559 11.8857L41.664 10.3115H26.7614Z" fill="white"/>
</g>
<defs>
<clipPath id="clip0_1473_2511">
<rect width="53.7333" height="53.7333" fill="white" transform="translate(0 0.446777)"/>
</clipPath>
</defs>
</svg>
