<svg width="47" height="54" viewBox="0 0 47 54" fill="none" xmlns="http://www.w3.org/2000/svg">
<g clip-path="url(#clip0_1473_2360)">
<path d="M3.86656 47.7154L0 0.460938L46.1768 0.555898L42.0883 47.7154L23.2627 53.1665L3.86656 47.7154Z" fill="#E9CA32"/>
<path d="M23.2625 48.6029V4.96143L42.2783 5.02473L38.8873 44.0706L23.2625 48.6029Z" fill="#FFDE25"/>
<path d="M21.2263 10.1431H16.199V39.1898L12.2888 38.445V34.5348L7.63391 33.79V42.5413L21.2263 46.079V10.1431ZM24.9975 10.1431H38.915L37.984 15.7103H30.3104V24.8463H37.984L37.053 43.2861L24.9975 46.079V40.3069L33.1429 37.514L33.6132 29.8799L24.9975 31.1274V10.1431Z" fill="white"/>
</g>
<defs>
<clipPath id="clip0_1473_2360">
<rect width="46.1768" height="52.8822" fill="white" transform="translate(0 0.372559)"/>
</clipPath>
</defs>
</svg>
