<svg width="55" height="51" viewBox="0 0 55 51" fill="none" xmlns="http://www.w3.org/2000/svg">
<g clip-path="url(#clip0_1473_2727)">
<path d="M32.8246 27.7741L29.0372 0H28.7544C14.9825 0.0402065 3.82817 11.1945 3.78796 24.9664V25.2492L32.8246 27.7741Z" fill="#ED6C47"/>
<path d="M29.3199 0H29.0371V25.2492L41.6617 30.2991L54.2863 25.2492V24.9664C54.2461 11.1945 43.0918 0.0402065 29.3199 0Z" fill="#FF8F6B"/>
<path d="M54.2864 25.2493V25.527C54.2469 39.302 43.0899 50.459 29.3149 50.4985H28.7594C14.9845 50.459 3.82749 39.302 3.78796 25.527V25.2493H54.2864Z" fill="#D35230"/>
<path opacity="0.1" d="M30.2988 12.4099V39.3508C30.2925 40.287 29.7252 41.128 28.8596 41.4844C28.584 41.601 28.2878 41.6611 27.9885 41.6611H9.74595C9.39246 41.2571 9.05161 40.8279 8.73598 40.3987C5.51961 36.108 3.78295 30.8892 3.78714 25.5269V24.9714C3.77976 20.1347 5.19332 15.4023 7.85226 11.3621C8.13 10.9328 8.42036 10.5036 8.73598 10.0996H27.9885C29.2605 10.1093 30.2892 11.138 30.2988 12.4099Z" fill="black"/>
<path opacity="0.2" d="M29.0364 13.6726V40.6135C29.0363 40.9128 28.9762 41.209 28.8596 41.4846C28.5032 42.3503 27.6622 42.9176 26.7261 42.9238H10.8948C10.4954 42.5183 10.1121 42.0972 9.74595 41.6614C9.39246 41.2574 9.05161 40.8281 8.73598 40.3989C5.51961 36.1083 3.78295 30.8895 3.78714 25.5271V24.9716C3.77976 20.1349 5.19332 15.4026 7.85226 11.3623H26.7261C27.998 11.3719 29.0268 12.4007 29.0364 13.6726Z" fill="black"/>
<path opacity="0.2" d="M29.0364 13.6726V38.0886C29.0267 39.3605 27.998 40.3893 26.7261 40.3989H8.73599C5.51961 36.1083 3.78295 30.8895 3.78714 25.5271V24.9716C3.77976 20.1349 5.19332 15.4026 7.85226 11.3623H26.726C27.998 11.3719 29.0267 12.4006 29.0364 13.6726Z" fill="black"/>
<path opacity="0.2" d="M27.7739 13.6726V38.0886C27.7643 39.3605 26.7355 40.3893 25.4636 40.3989H8.73598C5.51961 36.1083 3.78295 30.8895 3.78714 25.5271V24.9716C3.77976 20.1349 5.19332 15.4026 7.85226 11.3623H25.4636C26.7355 11.3719 27.7643 12.4006 27.7739 13.6726Z" fill="black"/>
<path d="M2.31432 11.3623H25.4603C26.7383 11.3623 27.7744 12.3984 27.7744 13.6764V36.8223C27.7744 38.1004 26.7383 39.1364 25.4603 39.1364H2.31432C1.03631 39.1364 0.000244141 38.1004 0.000244141 36.8224V13.6764C0.000244141 12.3984 1.03631 11.3623 2.31432 11.3623Z" fill="url(#paint0_linear_1473_2727)"/>
<path d="M14.1398 17.5342C15.6465 17.4325 17.1403 17.8702 18.3539 18.7689C19.3661 19.6726 19.907 20.9913 19.8209 22.3455C19.8374 23.2868 19.5865 24.2136 19.0975 25.0181C18.6023 25.8088 17.889 26.4392 17.0434 26.8335C16.0768 27.2831 15.02 27.5051 13.9542 27.4824H11.0266V32.9236H8.0282V17.5342H14.1398ZM11.024 25.1317H13.6045C14.4226 25.1918 15.2343 24.9497 15.8858 24.4513C16.4247 23.9343 16.7071 23.2054 16.6572 22.4604C16.6572 20.7645 15.6716 19.9165 13.7005 19.9165H11.0241V25.1317H11.024Z" fill="white"/>
</g>
<defs>
<linearGradient id="paint0_linear_1473_2727" x1="4.82517" y1="9.55412" x2="22.9495" y2="40.9446" gradientUnits="userSpaceOnUse">
<stop stop-color="#CA4C28"/>
<stop offset="0.5" stop-color="#C5401E"/>
<stop offset="1" stop-color="#B62F14"/>
</linearGradient>
<clipPath id="clip0_1473_2727">
<rect width="54.2858" height="50.4984" fill="white"/>
</clipPath>
</defs>
</svg>
