<svg width="55" height="56" viewBox="0 0 55 56" fill="none" xmlns="http://www.w3.org/2000/svg">
<path d="M26.8884 0.000450079C24.6442 0.0108776 22.5011 0.202273 20.6154 0.535953C15.0602 1.51736 14.0516 3.57154 14.0516 7.35979V12.3629H27.1791V14.0306H14.0516H9.12499C5.30978 14.0306 1.96907 16.3238 0.924142 20.6862C-0.281171 25.6865 -0.334634 28.8067 0.924142 34.0278C1.85729 37.9142 4.08577 40.6834 7.90098 40.6834H12.4145V34.6857C12.4145 30.3528 16.1635 26.5308 20.6154 26.5308H33.7275C37.3775 26.5308 40.2913 23.5255 40.2913 19.86V7.35979C40.2913 3.80217 37.29 1.12971 33.7275 0.535953C31.4724 0.160562 29.1326 -0.00997763 26.8884 0.000450079ZM19.7891 4.02437C21.1451 4.02437 22.2525 5.1498 22.2525 6.53359C22.2525 7.91247 21.1451 9.0275 19.7891 9.0275C18.4283 9.0275 17.3258 7.91247 17.3258 6.53359C17.3258 5.1498 18.4283 4.02437 19.7891 4.02437Z" fill="url(#paint0_linear_1472_1563)"/>
<path d="M41.9286 14.0303V19.8596C41.9286 24.379 38.0971 28.1828 33.7278 28.1828H20.6156C17.024 28.1828 14.0519 31.2568 14.0519 34.8537V47.3539C14.0519 50.9115 17.1455 53.004 20.6156 54.0247C24.771 55.2465 28.7559 55.4674 33.7278 54.0247C37.0327 53.0678 40.2915 51.1421 40.2915 47.3539V42.3507H27.1794V40.683H40.2915H46.8553C50.6705 40.683 52.0922 38.0218 53.419 34.0275C54.7896 29.9154 54.7312 25.9609 53.419 20.6858C52.4761 16.8877 50.6753 14.0303 46.8553 14.0303H41.9286ZM34.554 45.6861C35.9148 45.6861 37.0173 46.8012 37.0173 48.1801C37.0173 49.5638 35.9148 50.6893 34.554 50.6893C33.198 50.6893 32.0907 49.5638 32.0907 48.1801C32.0907 46.8012 33.198 45.6861 34.554 45.6861Z" fill="url(#paint1_linear_1472_1563)"/>
<defs>
<linearGradient id="paint0_linear_1472_1563" x1="-1.63471e-07" y1="-1.42003e-07" x2="30.2705" y2="25.7947" gradientUnits="userSpaceOnUse">
<stop stop-color="#5A9FD4"/>
<stop offset="1" stop-color="#306998"/>
</linearGradient>
<linearGradient id="paint1_linear_1472_1563" x1="34.2385" y1="47.7594" x2="23.3786" y2="32.5415" gradientUnits="userSpaceOnUse">
<stop stop-color="#FFD43B"/>
<stop offset="1" stop-color="#FFE873"/>
</linearGradient>
</defs>
</svg>
