<svg width="67" height="53" viewBox="0 0 67 53" fill="none" xmlns="http://www.w3.org/2000/svg">
<g clip-path="url(#clip0_1473_2638)">
<path d="M21.3359 20.5054L34.5338 27.0295V37.641L21.3359 30.6941V20.5054Z" fill="#6483C0"/>
<path d="M34.9759 38.3679L20.9016 30.9579V19.812L34.9759 26.7565V38.3679ZM21.7756 30.4283L34.0971 36.912V27.3004L21.7756 21.2109V30.4283Z" fill="black"/>
<path d="M35.3826 27.0291V37.6406L47.1246 31.7197V21.1272L35.3826 27.0291Z" fill="#6483C0"/>
<path d="M34.9373 38.3532V26.7585L47.5556 20.4172V31.9906L34.9373 38.3532ZM35.8136 27.2976V36.9282L46.6793 31.4491V21.8375L35.8136 27.2976Z" fill="black"/>
<path d="M21.9213 19.8044L34.9434 26.4141L46.5714 20.4386L33.972 14.0854L21.9213 19.8044Z" fill="#6483C0"/>
<path d="M34.9417 26.9086L20.9292 19.7836L33.9917 13.5896L47.5506 20.4272L34.9417 26.9086ZM22.9123 19.8121L34.9393 25.9158L45.6031 20.4343L33.9656 14.5657L22.9123 19.8121Z" fill="black"/>
<path d="M41.5232 31.7551L54.7234 38.2769V48.8884L41.5232 41.9415V31.7551Z" fill="#952781"/>
<path d="M55.1634 49.6157L41.0891 42.2057V31.0432L55.1634 38.0043V49.6157ZM41.9655 41.6761L54.287 48.1622V38.5482L41.9655 32.4587V41.6761Z" fill="black"/>
<path d="M55.5698 38.2766V48.8881L67.3118 42.9673V32.3748L55.5698 38.2766Z" fill="#952781"/>
<path d="M55.1323 49.6008V38.006L67.7507 31.6648V43.2382L55.1323 49.6008ZM56.0087 38.5452V48.1758L66.8743 42.6943V33.085L56.0087 38.5452Z" fill="black"/>
<path d="M42.1086 31.0829L55.1331 37.6925L66.7611 31.7147L54.366 25.8579L42.1086 31.0829Z" fill="#952781"/>
<path d="M55.1303 38.1844L41.0703 31.0475L54.3703 25.3784L67.7487 31.6983L55.1303 38.1844ZM43.1437 31.1164L55.1279 37.1988L65.7656 31.7363L54.3513 26.345L43.1437 31.1164Z" fill="black"/>
<path d="M1.70288 30.9641L14.9031 37.4882V48.0997L1.70288 41.1529V30.9641Z" fill="#D87B30"/>
<path d="M15.3363 48.8259L1.26208 41.423V30.2605L15.3363 37.2169V48.8259ZM2.13846 40.8862L14.46 47.3724V37.7584L2.13846 31.6689V40.8862Z" fill="black"/>
<path d="M15.7462 37.4885V48.1L27.4882 42.1792V31.5867L15.7462 37.4885Z" fill="#D87B30"/>
<path d="M15.3119 48.8127V37.218L27.9303 30.8767V42.4501L15.3119 48.8127ZM16.1883 37.7571V47.3877L27.0539 41.8991V32.297L16.1883 37.7571Z" fill="black"/>
<path d="M2.28064 30.2924L15.3051 36.9044L26.9331 30.9266L14.538 25.0698L2.28064 30.2924Z" fill="#D87B30"/>
<path d="M15.31 37.3857L1.25 30.2607L14.55 24.5916L27.926 30.9114L15.31 37.3857ZM3.32337 30.3272L15.3076 36.4096L25.9452 30.9471L14.531 25.5558L3.32337 30.3272Z" fill="black"/>
<path d="M22.328 32.8643L35.5259 39.386V49.9999L22.328 43.0506V32.8643Z" fill="#E0D400"/>
<path d="M35.9646 50.7239L21.8904 43.3234V32.1609L35.9646 39.1173V50.7239ZM22.7668 42.7866L35.0883 49.2728V39.6588L22.7668 33.5693V42.7866Z" fill="black"/>
<path d="M36.3748 39.3865V50.0004L48.1168 44.0771V33.4846L36.3748 39.3865Z" fill="#E0D400"/>
<path d="M35.9248 50.7131V39.1184L48.5432 32.7771V44.3505L35.9248 50.7131ZM36.8012 39.6575V49.2881L47.6787 43.7995V34.1973L36.8012 39.6575Z" fill="black"/>
<path d="M22.9133 32.1633L35.9378 38.773L47.5658 32.7951L34.9665 26.4443L22.9133 32.1633Z" fill="#E0D400"/>
<path d="M35.9338 39.2641L21.9213 32.1391L34.9838 25.9451L48.5426 32.7827L35.9338 39.2641ZM23.9044 32.1747L35.9314 38.2784L46.5951 32.7969L34.9576 26.9283L23.9044 32.1747Z" fill="black"/>
</g>
<defs>
<clipPath id="clip0_1473_2638">
<rect width="67" height="52" fill="white" transform="translate(0 0.161377)"/>
</clipPath>
</defs>
</svg>
