<svg width="42" height="35" viewBox="0 0 42 35" fill="none" xmlns="http://www.w3.org/2000/svg">
<path d="M7.9209 31.3158C8.89988 31.3158 10.3683 29.2599 12.0815 28.9663C13.0605 28.9663 13.7948 31.0221 16.2421 31.3158C17.9554 31.3158 18.6897 29.2599 20.4028 29.2599C22.1161 29.2599 22.8502 31.3158 24.5635 31.3158C26.2766 31.3158 27.0109 29.2599 28.7242 29.2599C30.4373 29.2599 31.1716 31.3158 32.8847 31.3158C34.598 31.3158 35.3323 29.2599 37.0454 29.2599C38.7587 29.2599 39.4928 31.3158 41.2061 31.3158M11.269 29.2698L10.1481 27.1257L39.0279 25.2658C36.7567 27.3313 33.8392 29.0054 30.8876 30.3759M21.6461 7.15469C26.5606 8.65742 33.433 15.9165 35.7728 23.7189C34.4903 23.2148 33.5309 22.7008 31.7296 23.161C29.987 16.8221 26.869 10.7671 21.6461 7.15469ZM12.5074 3.6842C18.8022 6.37639 27.4368 13.8704 29.0227 23.8511C21.7636 20.9239 16.2373 22.4855 12.3899 24.8595C18.2589 17.3997 15.6254 8.91682 12.5074 3.6842Z" stroke="black" stroke-width="0.921053" stroke-linecap="round" stroke-linejoin="round"/>
</svg>
