<svg width="35" height="35" viewBox="0 0 35 35" fill="none" xmlns="http://www.w3.org/2000/svg">
<path d="M32.0738 14.4126C32.4553 13.2673 32.5877 12.0536 32.4621 10.8529C32.3366 9.65218 31.9559 8.49216 31.3457 7.45048C30.4408 5.87484 29.0589 4.62737 27.3992 3.88809C25.7394 3.1488 23.8878 2.95594 22.1113 3.33733C21.31 2.43433 20.3253 1.71286 19.2228 1.22123C18.1203 0.729601 16.9254 0.479141 15.7182 0.486613C13.9021 0.48225 12.1314 1.05468 10.6616 2.12139C9.1917 3.1881 8.0985 4.69398 7.53955 6.42198C6.35622 6.6641 5.23828 7.15625 4.26058 7.86546C3.28287 8.57468 2.46797 9.4846 1.87045 10.5343C0.958755 12.1056 0.569648 13.9259 0.759235 15.7326C0.948823 17.5394 1.70731 19.2392 2.92533 20.5871C2.54385 21.7326 2.41147 22.9464 2.53705 24.1473C2.66264 25.3481 3.04329 26.5083 3.65352 27.5501C4.5584 29.1257 5.94038 30.3731 7.6001 31.1123C9.25981 31.8516 11.1115 32.0444 12.8879 31.6633C13.6893 32.5662 14.6743 33.2875 15.777 33.7789C16.8796 34.2704 18.0746 34.5208 19.2818 34.5131C21.0989 34.5179 22.8705 33.9453 24.3409 32.8779C25.8114 31.8104 26.9047 30.3034 27.463 28.5743C28.6463 28.3321 29.7641 27.8399 30.7416 27.1307C31.7192 26.4215 32.5338 25.5116 33.1313 24.462C34.042 22.8909 34.4303 21.0711 34.2402 19.265C34.0503 17.459 33.2917 15.7599 32.0738 14.4126ZM19.2844 32.2911C17.7925 32.2933 16.3474 31.7709 15.2018 30.8151C15.2538 30.787 15.3448 30.7377 15.4034 30.7011L22.1785 26.7879C22.3487 26.6912 22.4901 26.5507 22.5881 26.3812C22.6861 26.2116 22.737 26.019 22.7357 25.8232V16.2706L25.5992 17.9244C25.6142 17.9317 25.6273 17.9428 25.6371 17.9565C25.6469 17.9701 25.6531 17.986 25.6553 18.0027V25.9134C25.6533 27.6031 24.9815 29.2231 23.7871 30.4185C22.5928 31.6137 20.974 32.2877 19.2844 32.2911ZM5.58292 26.4383C4.83586 25.1472 4.56664 23.6346 4.82239 22.1651C4.87344 22.1958 4.96021 22.2493 5.02402 22.285L11.799 26.1983C11.9678 26.2969 12.1599 26.3489 12.3554 26.3489C12.5509 26.3489 12.7429 26.2969 12.9118 26.1983L21.184 21.4224V24.73C21.185 24.7468 21.1817 24.7636 21.1746 24.7789C21.1675 24.7942 21.1567 24.8075 21.1432 24.8176L14.2942 28.7725C12.829 29.6164 11.0889 29.8446 9.45579 29.4068C7.82263 28.9692 6.4298 27.9016 5.58292 26.4383ZM3.8007 11.6479C4.54488 10.3549 5.72028 9.36499 7.121 8.8516C7.121 8.90944 7.1176 9.01323 7.1176 9.08469V16.9121C7.11649 17.1075 7.16744 17.2998 7.26522 17.4689C7.363 17.6382 7.50408 17.7783 7.67396 17.875L15.9454 22.6509L13.0819 24.3047C13.0677 24.314 13.0514 24.3197 13.0345 24.3212C13.0175 24.3227 13.0005 24.3199 12.9849 24.3132L6.13418 20.3557C4.67163 19.5087 3.60465 18.1162 3.16721 16.4837C2.72978 14.8512 2.9576 13.1127 3.8007 11.6479ZM27.3295 17.1238L19.0572 12.3471L21.9216 10.6942C21.9357 10.6851 21.9518 10.6795 21.9686 10.678C21.9853 10.6765 22.0022 10.6792 22.0177 10.6857L28.8676 14.6398C29.9169 15.246 30.7719 16.1386 31.3324 17.2131C31.8929 18.2876 32.1355 19.4995 32.0322 20.707C31.9288 21.9145 31.4836 23.0675 30.7487 24.0312C30.0138 24.9947 29.0196 25.729 27.8825 26.1481V18.0868C27.884 17.8917 27.8336 17.6997 27.7364 17.5304C27.6392 17.3612 27.4989 17.2209 27.3295 17.1238ZM30.1794 12.8338C30.1291 12.8023 30.0415 12.7495 29.9786 12.7138L23.2027 8.80055C23.0339 8.70204 22.8419 8.65015 22.6463 8.65015C22.4508 8.65015 22.2589 8.70204 22.09 8.80055L13.8186 13.5765V10.2689C13.8176 10.252 13.8209 10.2352 13.828 10.2199C13.8351 10.2046 13.8459 10.1913 13.8595 10.1812L20.7076 6.22973C21.757 5.62438 22.957 5.33041 24.1673 5.38224C25.3776 5.43406 26.5481 5.82952 27.5419 6.52235C28.5357 7.21517 29.3116 8.17669 29.7789 9.29441C30.246 10.4121 30.3844 11.6398 30.1794 12.8338ZM12.2609 18.7282L9.39664 17.0745C9.38172 17.067 9.36887 17.0559 9.35923 17.0423C9.3496 17.0286 9.34345 17.0128 9.34134 16.9962V9.08554C9.34235 7.87412 9.68835 6.68805 10.3389 5.66611C10.9894 4.64416 11.9174 3.82862 13.0146 3.31493C14.1117 2.80122 15.3324 2.6106 16.5339 2.76538C17.7354 2.92015 18.868 3.41391 19.7991 4.18888C19.7314 4.22557 19.6645 4.26357 19.5983 4.30287L12.8224 8.21612C12.6526 8.31279 12.5115 8.45295 12.4137 8.62219C12.3159 8.79143 12.265 8.98365 12.266 9.17912L12.2609 18.7282ZM13.8169 15.3739L17.5004 13.2463L21.1857 15.3731V19.6267L17.5013 21.7534L13.8169 19.6267V15.3739Z" fill="black"/>
</svg>
