<svg width="35" height="35" viewBox="0 0 35 35" fill="none" xmlns="http://www.w3.org/2000/svg">
<path fill-rule="evenodd" clip-rule="evenodd" d="M6.43249 0L16.3988 9.18252V9.18041V0.0211882H18.3389V9.22361L28.3499 0V10.4694H32.4601V25.5706H28.3625V34.8931L18.3389 26.0867V34.9943H16.3988V26.2318L6.44378 35V25.5706H2.3335V10.4694H6.43249V0ZM14.9363 12.3858H4.27355V23.6543H6.44134V20.0998L14.9363 12.3858ZM8.38374 20.9501V30.7238L16.3988 23.6643V13.6701L8.38374 20.9501ZM18.3948 23.571V13.6606L26.4122 20.9411V25.5706H26.4225V30.6239L18.3948 23.571ZM28.3625 23.6543H30.52V12.3858H19.9367L28.3625 20.0199V23.6543ZM26.4099 10.4694V4.40804L19.8309 10.4694H26.4099ZM14.9513 10.4694H8.37255V4.40804L14.9513 10.4694Z" fill="#20808D"/>
</svg>
