<svg width="49" height="49" viewBox="0 0 49 49" fill="none" xmlns="http://www.w3.org/2000/svg">
<g clip-path="url(#clip0_6_1311)">
<g clip-path="url(#clip1_6_1311)">
<path d="M24.4481 48.8963C37.9505 48.8963 48.8963 37.9505 48.8963 24.4481C48.8963 10.9458 37.9505 0 24.4481 0C10.9458 0 0 10.9458 0 24.4481C0 37.9505 10.9458 48.8963 24.4481 48.8963Z" fill="#C4C4C4" fill-opacity="0.33"/>
<path fill-rule="evenodd" clip-rule="evenodd" d="M25.1466 39.117C26.9812 39.117 28.7979 38.7556 30.4928 38.0536C32.1878 37.3514 33.7279 36.3225 35.0252 35.0252C36.3225 33.7279 37.3514 32.1878 38.0536 30.4928C38.7556 28.7979 39.117 26.9812 39.117 25.1466C39.117 23.3121 38.7556 21.4953 38.0536 19.8005C37.3514 18.1054 36.3225 16.5653 35.0252 15.2681C33.7279 13.9708 32.1878 12.9418 30.4928 12.2397C28.7979 11.5376 26.9812 11.1763 25.1466 11.1763C21.4414 11.1763 17.8881 12.6481 15.2681 15.2681C12.6481 17.8881 11.1763 21.4414 11.1763 25.1466C11.1763 28.8519 12.6481 32.4052 15.2681 35.0252C17.8881 37.6451 21.4414 39.117 25.1466 39.117ZM32.5479 21.4833C32.6841 21.3276 32.7879 21.1461 32.853 20.9495C32.9181 20.7531 32.9432 20.5456 32.927 20.3393C32.9107 20.133 32.8534 19.9319 32.7583 19.7481C32.6631 19.5642 32.5322 19.4013 32.3732 19.2687C32.2143 19.1363 32.0304 19.0368 31.8324 18.9765C31.6345 18.9161 31.4263 18.8959 31.2204 18.9171C31.0146 18.9383 30.815 19.0005 30.6335 19.1C30.452 19.1995 30.2922 19.3343 30.1635 19.4965L24.5785 26.1975C24.0399 26.8432 23.7372 27.2018 23.4966 27.4207L23.4872 27.43L23.4763 27.4223C23.2157 27.2252 22.8819 26.896 22.2889 26.3016L20.035 24.0491C19.7423 23.7664 19.3502 23.61 18.9432 23.6135C18.5361 23.617 18.1468 23.7803 17.859 24.0681C17.5712 24.3559 17.408 24.7453 17.4044 25.1522C17.4009 25.5592 17.5574 25.9513 17.8401 26.2442L20.0924 28.4965L20.1561 28.56C20.6637 29.0677 21.1496 29.5551 21.6043 29.8981C22.112 30.2831 22.7778 30.6431 23.63 30.606C24.4839 30.5671 25.1141 30.1465 25.5859 29.718C26.005 29.3347 26.4474 28.8053 26.9054 28.2542L26.9628 28.186L32.5479 21.4833Z" fill="url(#paint0_linear_6_1311)"/>
<path fill-rule="evenodd" clip-rule="evenodd" d="M25.1466 39.117C26.9812 39.117 28.7979 38.7556 30.4928 38.0536C32.1878 37.3514 33.7279 36.3225 35.0252 35.0252C36.3225 33.7279 37.3514 32.1878 38.0536 30.4928C38.7556 28.7979 39.117 26.9812 39.117 25.1466C39.117 23.3121 38.7556 21.4953 38.0536 19.8005C37.3514 18.1054 36.3225 16.5653 35.0252 15.2681C33.7279 13.9708 32.1878 12.9418 30.4928 12.2397C28.7979 11.5376 26.9812 11.1763 25.1466 11.1763C21.4414 11.1763 17.8881 12.6481 15.2681 15.2681C12.6481 17.8881 11.1763 21.4414 11.1763 25.1466C11.1763 28.8519 12.6481 32.4052 15.2681 35.0252C17.8881 37.6451 21.4414 39.117 25.1466 39.117ZM32.5479 21.4833C32.6841 21.3276 32.7879 21.1461 32.853 20.9495C32.9181 20.7531 32.9432 20.5456 32.927 20.3393C32.9107 20.133 32.8534 19.9319 32.7583 19.7481C32.6631 19.5642 32.5322 19.4013 32.3732 19.2687C32.2143 19.1363 32.0304 19.0368 31.8324 18.9765C31.6345 18.9161 31.4263 18.8959 31.2204 18.9171C31.0146 18.9383 30.815 19.0005 30.6335 19.1C30.452 19.1995 30.2922 19.3343 30.1635 19.4965L24.5785 26.1975C24.0399 26.8432 23.7372 27.2018 23.4966 27.4207L23.4872 27.43L23.4763 27.4223C23.2157 27.2252 22.8819 26.896 22.2889 26.3016L20.035 24.0491C19.7423 23.7664 19.3502 23.61 18.9432 23.6135C18.5361 23.617 18.1468 23.7803 17.859 24.0681C17.5712 24.3559 17.408 24.7453 17.4044 25.1522C17.4009 25.5592 17.5574 25.9513 17.8401 26.2442L20.0924 28.4965L20.1561 28.56C20.6637 29.0677 21.1496 29.5551 21.6043 29.8981C22.112 30.2831 22.7778 30.6431 23.63 30.606C24.4839 30.5671 25.1141 30.1465 25.5859 29.718C26.005 29.3347 26.4474 28.8053 26.9054 28.2542L26.9628 28.186L32.5479 21.4833Z" fill="url(#paint1_linear_6_1311)"/>
</g>
</g>
<defs>
<linearGradient id="paint0_linear_6_1311" x1="11.1763" y1="25.1466" x2="39.117" y2="25.1466" gradientUnits="userSpaceOnUse">
<stop stop-color="white"/>
<stop offset="1" stop-color="#FF00F3"/>
</linearGradient>
<linearGradient id="paint1_linear_6_1311" x1="25.1466" y1="11.1763" x2="25.1466" y2="39.117" gradientUnits="userSpaceOnUse">
<stop stop-color="#FDB3FF"/>
<stop offset="1" stop-color="#C244C8"/>
</linearGradient>
<clipPath id="clip0_6_1311">
<rect width="48.8963" height="48.8963" fill="white"/>
</clipPath>
<clipPath id="clip1_6_1311">
<rect width="48.8963" height="48.8963" fill="white"/>
</clipPath>
</defs>
</svg>
