<svg width="28" height="28" viewBox="0 0 28 28" fill="none" xmlns="http://www.w3.org/2000/svg">
<path d="M13.7397 8.01465V24.0441" stroke="white" stroke-width="2.28992" stroke-linecap="round" stroke-linejoin="round"/>
<path d="M3.435 20.6095C3.13134 20.6095 2.84011 20.4889 2.62539 20.2741C2.41067 20.0594 2.29004 19.7682 2.29004 19.4645V4.58002C2.29004 4.27636 2.41067 3.98513 2.62539 3.77041C2.84011 3.55569 3.13134 3.43506 3.435 3.43506H9.15981C10.3745 3.43506 11.5394 3.91758 12.3983 4.77646C13.2571 5.63535 13.7397 6.80025 13.7397 8.01491C13.7397 6.80025 14.2222 5.63535 15.0811 4.77646C15.9399 3.91758 17.1049 3.43506 18.3195 3.43506H24.0443C24.348 3.43506 24.6392 3.55569 24.8539 3.77041C25.0686 3.98513 25.1893 4.27636 25.1893 4.58002V19.4645C25.1893 19.7682 25.0686 20.0594 24.8539 20.2741C24.6392 20.4889 24.348 20.6095 24.0443 20.6095H17.1745C16.2636 20.6095 15.3899 20.9714 14.7457 21.6155C14.1015 22.2597 13.7397 23.1334 13.7397 24.0444C13.7397 23.1334 13.3778 22.2597 12.7336 21.6155C12.0894 20.9714 11.2158 20.6095 10.3048 20.6095H3.435Z" stroke="white" stroke-width="2.28992" stroke-linecap="round" stroke-linejoin="round"/>
</svg>
