<svg width="28" height="28" viewBox="0 0 28 28" fill="none" xmlns="http://www.w3.org/2000/svg">
<path d="M17.7209 14.7588L19.4555 24.5207C19.4749 24.6357 19.4588 24.7538 19.4093 24.8594C19.3598 24.9649 19.2792 25.0528 19.1784 25.1113C19.0775 25.1698 18.9612 25.1961 18.845 25.1868C18.7288 25.1774 18.6183 25.1328 18.5281 25.0589L14.4291 21.9824C14.2313 21.8345 13.9909 21.7546 13.7439 21.7546C13.4969 21.7546 13.2565 21.8345 13.0586 21.9824L8.95278 25.0577C8.8627 25.1315 8.75225 25.176 8.63619 25.1854C8.52013 25.1948 8.40397 25.1686 8.3032 25.1102C8.20243 25.0519 8.12185 24.9642 8.07221 24.8589C8.02257 24.7536 8.00623 24.6356 8.02536 24.5207L9.75883 14.7588" stroke="white" stroke-width="2.28992" stroke-linecap="round" stroke-linejoin="round"/>
<path d="M13.7394 16.0296C17.5335 16.0296 20.6092 12.9539 20.6092 9.15981C20.6092 5.36574 17.5335 2.29004 13.7394 2.29004C9.94533 2.29004 6.86963 5.36574 6.86963 9.15981C6.86963 12.9539 9.94533 16.0296 13.7394 16.0296Z" stroke="white" stroke-width="2.28992" stroke-linecap="round" stroke-linejoin="round"/>
</svg>
