<svg width="28" height="28" viewBox="0 0 28 28" fill="none" xmlns="http://www.w3.org/2000/svg">
<path d="M18.3193 14.8843L24.2995 18.871C24.3857 18.9284 24.4858 18.9613 24.5893 18.9663C24.6927 18.9712 24.7955 18.948 24.8868 18.8991C24.9781 18.8503 25.0545 18.7775 25.1077 18.6887C25.1609 18.5999 25.1891 18.4983 25.1891 18.3947V9.01064C25.1891 8.90991 25.1626 8.81095 25.1121 8.72377C25.0617 8.63658 24.9891 8.56424 24.9018 8.51407C24.8144 8.46389 24.7154 8.43765 24.6147 8.43799C24.514 8.43833 24.4151 8.46525 24.3281 8.51602L18.3193 12.0219" stroke="white" stroke-width="2.28992" stroke-linecap="round" stroke-linejoin="round"/>
<path d="M16.0296 6.86963H4.57996C3.31527 6.86963 2.29004 7.89486 2.29004 9.15955V18.3192C2.29004 19.5839 3.31527 20.6092 4.57996 20.6092H16.0296C17.2943 20.6092 18.3195 19.5839 18.3195 18.3192V9.15955C18.3195 7.89486 17.2943 6.86963 16.0296 6.86963Z" stroke="white" stroke-width="2.28992" stroke-linecap="round" stroke-linejoin="round"/>
</svg>
