<svg width="37" height="37" viewBox="0 0 37 37" fill="none" xmlns="http://www.w3.org/2000/svg">
<path d="M30.5325 12.2124H6.10669C5.26357 12.2124 4.58008 12.8959 4.58008 13.739V16.7922C4.58008 17.6354 5.26357 18.3189 6.10669 18.3189H30.5325C31.3757 18.3189 32.0592 17.6354 32.0592 16.7922V13.739C32.0592 12.8959 31.3757 12.2124 30.5325 12.2124Z" stroke="white" stroke-width="3.05323" stroke-linecap="round" stroke-linejoin="round"/>
<path d="M18.3193 12.2124V32.0584" stroke="white" stroke-width="3.05323" stroke-linecap="round" stroke-linejoin="round"/>
<path d="M29.0054 18.3193V29.0056C29.0054 29.8154 28.6838 30.592 28.1112 31.1646C27.5386 31.7372 26.762 32.0589 25.9522 32.0589H10.686C9.87628 32.0589 9.09968 31.7372 8.52708 31.1646C7.95449 30.592 7.63281 29.8154 7.63281 29.0056V18.3193" stroke="white" stroke-width="3.05323" stroke-linecap="round" stroke-linejoin="round"/>
<path d="M11.4494 12.2128C10.4371 12.2128 9.46639 11.8107 8.75065 11.095C8.03491 10.3793 7.63281 9.40852 7.63281 8.39631C7.63281 7.3841 8.03491 6.41335 8.75065 5.69761C9.46639 4.98187 10.4371 4.57977 11.4494 4.57977C12.9221 4.55411 14.3652 5.26867 15.5907 6.63026C16.8161 7.99185 17.7669 9.93728 18.3191 12.2128C18.8713 9.93728 19.8222 7.99185 21.0476 6.63026C22.273 5.26867 23.7162 4.55411 25.1889 4.57977C26.2011 4.57977 27.1719 4.98187 27.8876 5.69761C28.6033 6.41335 29.0054 7.3841 29.0054 8.39631C29.0054 9.40852 28.6033 10.3793 27.8876 11.095C27.1719 11.8107 26.2011 12.2128 25.1889 12.2128" stroke="white" stroke-width="3.05323" stroke-linecap="round" stroke-linejoin="round"/>
</svg>
