<svg width="26" height="31" viewBox="0 0 26 31" fill="none" xmlns="http://www.w3.org/2000/svg">
<path fill-rule="evenodd" clip-rule="evenodd" d="M4.27695 0.125239C4.20681 0.195167 4.10674 0.492953 4.04117 0.826667L3.92724 1.4066H2.95331C2.12817 1.4066 1.91688 1.4276 1.57038 1.54445C0.999524 1.73695 0.35931 2.3176 0.143453 2.83881C-0.0107614 3.21117 -0.0134755 3.26652 0.0121673 5.54881C0.0417388 8.19674 0.0663812 8.34645 0.656881 9.47124C1.07195 10.2618 1.47038 10.7781 2.11188 11.3569C3.1271 12.273 4.53374 12.9595 5.82567 13.1697C6.08445 13.2119 6.14067 13.2607 6.49102 13.7482C7.2996 14.8733 8.49045 15.9218 9.55281 16.4439C10.0157 16.6714 10.0353 16.6914 10.2491 17.1515C10.6152 17.9394 10.814 18.7566 10.8296 19.5376L10.8434 20.2292L10.4545 20.3388C9.49903 20.608 8.51224 21.2277 8.14931 21.7865L7.96774 22.066H6.96302C6.0496 22.066 5.94424 22.0778 5.80367 22.196C5.64903 22.326 5.64895 22.3277 5.64895 25.1292V27.9323H4.73981C3.92702 27.9323 3.81081 27.9463 3.64438 28.0645L3.45817 28.1966V29.4035C3.45817 30.5254 3.4681 30.6193 3.59952 30.7379C3.73938 30.8641 3.83503 30.8654 12.5748 30.8654C21.3146 30.8654 21.4103 30.8641 21.5502 30.7379C21.6813 30.6195 21.6915 30.5254 21.6915 29.4279C21.6915 28.2573 21.6897 28.2437 21.518 28.0888C21.3515 27.9386 21.3072 27.9323 20.4226 27.9323H19.5007V25.1292C19.5007 22.3277 19.5006 22.326 19.346 22.196C19.2054 22.0778 19.1 22.066 18.1866 22.066H17.1819L17.0004 21.7865C16.6368 21.2267 15.6452 20.6046 14.6951 20.3401L14.3063 20.2318L14.2838 19.8577C14.2405 19.1359 14.5462 17.837 14.9495 17.0287C15.1059 16.7154 15.175 16.653 15.5988 16.4439C16.6557 15.9223 17.8371 14.884 18.6586 13.7546L19.0413 13.2285L19.6693 13.0917C20.0393 13.011 20.62 12.8114 21.0827 12.6059C22.5798 11.9411 23.6902 10.9396 24.4152 9.60024C25.0857 8.36174 25.1069 8.24252 25.1373 5.54881C25.1631 3.26631 25.1604 3.21124 25.0062 2.83881C24.7904 2.3176 24.1502 1.73695 23.5792 1.54445C23.2327 1.4276 23.0215 1.4066 22.1964 1.4066H21.2225L21.1085 0.826667C20.9258 -0.10319 22.0345 0.0037386 12.5748 0.0037386C4.62381 0.0037386 4.39545 0.0070959 4.27695 0.125239ZM20.101 0.976167C20.1838 1.19202 20.3608 2.54874 20.424 3.4521C20.538 5.07995 20.3606 7.02517 19.9507 8.64331C18.9486 12.5987 16.5651 15.5006 13.7928 16.1403C13.142 16.2905 12.0942 16.3022 11.456 16.1665C9.75595 15.8049 8.08595 14.5192 6.89938 12.6582C5.29774 10.1466 4.48267 6.65188 4.72867 3.35138C4.79545 2.45574 4.9641 1.20817 5.04974 0.976167C5.09295 0.859167 20.0562 0.859167 20.101 0.976167ZM3.76152 2.4746C3.67088 2.77695 3.69831 6.04095 3.79767 6.76274C4.02117 8.38638 4.57867 10.3245 5.18224 11.5757C5.31724 11.8557 5.41703 12.0944 5.40388 12.1062C5.34345 12.1607 4.23281 11.6848 3.77352 11.4077C3.14652 11.0293 2.24274 10.1773 1.88438 9.62681C1.51052 9.05252 1.21781 8.33474 1.0921 7.68424C0.962096 7.01195 0.938597 3.63131 1.06103 3.23331C1.15417 2.93052 1.66453 2.45552 1.98653 2.37181C2.11567 2.33824 2.57981 2.30817 3.01781 2.30502L3.81424 2.29924L3.76152 2.4746ZM23.4452 2.5071C23.6072 2.60381 23.8275 2.80245 23.9347 2.9486L24.1297 3.21424L24.1512 5.1476C24.1682 6.68138 24.1498 7.20038 24.0621 7.65881C23.934 8.32867 23.6439 9.04524 23.2652 9.62681C22.9069 10.1773 22.0032 11.0293 21.3762 11.4077C20.9169 11.6848 19.8062 12.1607 19.7457 12.1062C19.7326 12.0944 19.8324 11.8557 19.9674 11.5757C20.571 10.3245 21.1285 8.38638 21.352 6.76274C21.4524 6.03331 21.4784 2.77581 21.3862 2.4681L21.3318 2.28631L22.2413 2.30867C23.0951 2.32974 23.1689 2.34195 23.4452 2.5071ZM12.2521 17.1966C12.6045 17.216 13.0837 17.2035 13.3169 17.1687C13.5501 17.134 13.7511 17.1141 13.7635 17.1247C13.776 17.1352 13.7213 17.3332 13.6421 17.5647C13.4612 18.093 13.3034 18.8825 13.2433 19.5587L13.197 20.0802H12.5735H11.9499L11.9057 19.5907C11.8384 18.8455 11.7272 18.2622 11.5417 17.6813C11.3412 17.0534 11.3425 17.0681 11.4923 17.12C11.5578 17.1426 11.8996 17.1771 12.2521 17.1966ZM13.8469 21.1087C14.5701 21.2432 15.3492 21.5535 15.755 21.8687L16.0024 22.0609H12.5748H9.14724L9.3946 21.8687C10.3466 21.1294 12.2303 20.8078 13.8469 21.1087ZM18.5112 25.4774V27.9323H12.5748H6.63838V25.4774V23.0225H12.5748H18.5112V25.4774ZM20.7021 29.4307V29.9727H12.5748H4.4476V29.4307V28.8887H12.5748H20.7021V29.4307Z" fill="black"/>
</svg>
