<svg width="25" height="32" viewBox="0 0 25 32" fill="none" xmlns="http://www.w3.org/2000/svg">
<path fill-rule="evenodd" clip-rule="evenodd" d="M12.0848 0.110208C11.8662 0.243494 11.8056 0.374637 11.0993 2.24349L10.6384 3.46314L9.86329 3.50842C9.43693 3.53342 8.65907 3.57707 8.13457 3.60549C7.06014 3.66385 6.90971 3.72242 6.74914 4.14435C6.679 4.32857 6.67621 4.42292 6.73514 4.61957C6.79943 4.83407 6.96757 4.99221 8.0735 5.87771C8.76922 6.43478 9.37179 6.92157 9.41257 6.95942C9.46929 7.01199 9.385 7.39721 9.05529 8.59192C8.818 9.45192 8.62279 10.2344 8.6215 10.3307C8.61514 10.8006 8.98179 11.0988 9.52986 11.0694C9.60072 11.0656 10.2838 10.6544 11.0477 10.1556C11.8116 9.65678 12.465 9.24864 12.4995 9.24864C12.5341 9.24864 13.186 9.65678 13.9484 10.1556C14.7106 10.6544 15.3925 11.0656 15.4636 11.0694C16.0122 11.0987 16.3788 10.8008 16.3724 10.3307C16.3711 10.2344 16.1759 9.45192 15.9386 8.59192C15.6086 7.39599 15.5246 7.01192 15.5814 6.95885C15.6221 6.92071 16.2242 6.43535 16.9194 5.88049C18.0324 4.99192 18.1922 4.84185 18.2578 4.62285C18.3506 4.31271 18.2417 3.97749 17.9859 3.78642C17.8064 3.65242 17.7135 3.64307 15.2244 3.50978L14.3556 3.46314L13.7828 1.96207C13.4677 1.13642 13.1754 0.397923 13.1331 0.320851C12.9593 0.00442252 12.432 -0.101577 12.0848 0.110208ZM13.0286 2.88357C13.4714 4.05664 13.5524 4.22507 13.7326 4.34621C13.9459 4.48971 13.9178 4.4865 16.0097 4.60614L16.8017 4.65149L15.7069 5.52714C14.6321 6.38685 14.4359 6.59642 14.4359 6.88464C14.4359 6.96392 14.5901 7.59157 14.7787 8.27942C14.9674 8.96728 15.1222 9.56428 15.1227 9.60607C15.1234 9.64792 14.5854 9.33128 13.9272 8.90242C12.9371 8.25735 12.6902 8.12278 12.4969 8.12278C12.3037 8.12278 12.0568 8.25735 11.0666 8.90242C10.4086 9.33128 9.8705 9.64792 9.87114 9.60607C9.87171 9.56428 10.0265 8.96728 10.2151 8.27942C10.4037 7.59157 10.558 6.96392 10.558 6.88464C10.558 6.59642 10.3618 6.38685 9.287 5.52714L8.19214 4.65149L8.98421 4.60614C11.0751 4.4865 11.0481 4.48964 11.2613 4.34657C11.4416 4.22557 11.5224 4.05778 11.9653 2.88407C12.2405 2.15485 12.4797 1.55821 12.4969 1.55807C12.5141 1.55792 12.7534 2.15442 13.0286 2.88357ZM1.89543 5.69399C1.61907 5.85814 1.52471 6.21764 1.69814 6.44571C1.74221 6.50371 2.58486 7.01735 3.57064 7.58714C4.82743 8.31357 5.4205 8.62321 5.55536 8.62321C5.9565 8.62321 6.20043 8.12078 5.94529 7.81999C5.80522 7.65499 2.38764 5.68371 2.17807 5.64714C2.09143 5.63199 1.96422 5.65307 1.89543 5.69399ZM22.5659 5.73871C21.5655 6.27878 19.1359 7.71607 19.0486 7.81942C18.7929 8.12221 19.0373 8.62321 19.4406 8.62321C19.5783 8.62321 20.1578 8.32064 21.4255 7.58692C22.4103 7.01699 23.2519 6.50328 23.296 6.44542C23.3972 6.31221 23.3993 5.99542 23.2997 5.86571C23.2096 5.74835 22.9844 5.62099 22.8671 5.62099C22.8213 5.62099 22.6858 5.67392 22.5659 5.73871ZM0.163286 11.8155C0.00350011 11.9754 -0.0204286 12.0376 0.0132143 12.2062C0.0353571 12.3165 0.109786 12.4632 0.178643 12.5321C0.298 12.6516 0.399429 12.6583 2.36064 12.6761C4.62021 12.6968 4.80407 12.6729 4.92929 12.3436C5.02529 12.0911 5.006 12.0056 4.80864 11.8082L4.62579 11.6254H2.48964H0.353429L0.163286 11.8155ZM20.1853 11.8082C19.9879 12.0056 19.9686 12.0911 20.0646 12.3436C20.1854 12.6614 20.3787 12.6886 22.5043 12.6886C24.6299 12.6886 24.8231 12.6614 24.9439 12.3436C25.0399 12.0911 25.0206 12.0056 24.8233 11.8082L24.6404 11.6254H22.5043H20.3681L20.1853 11.8082ZM11.3399 14.1208C9.73214 14.5563 8.47993 15.7283 7.95843 17.2858C7.75214 17.9017 7.6845 18.9074 7.80336 19.5894C8.00471 20.7445 8.72872 21.9021 9.69193 22.6091L10.0002 22.8354L9.51293 23.0066C6.572 24.0398 4.33043 26.6427 3.73457 29.7165C3.57757 30.5266 3.582 30.6741 3.769 30.861L3.9225 31.0146H12.4969H21.0714L21.2249 30.861C21.4119 30.6741 21.4164 30.5266 21.2593 29.7165C20.8131 27.4147 19.4911 25.3974 17.5631 24.0767C16.9327 23.6449 16.051 23.1927 15.4345 22.9851L14.9904 22.8355L15.1979 22.69C15.5186 22.4649 16.1133 21.8839 16.343 21.5709C16.6805 21.1111 16.9911 20.4297 17.1323 19.8397C17.3259 19.0301 17.2806 17.9998 17.0183 17.2424C16.76 16.4968 16.3494 15.8644 15.7635 15.3099C15.1767 14.7548 14.7471 14.4904 14.0144 14.2333C13.5255 14.0619 13.3754 14.039 12.6221 14.0216C11.9437 14.006 11.6916 14.0254 11.3399 14.1208ZM13.6641 15.2209C15.1976 15.7288 16.2146 17.1407 16.2099 18.7556C16.2069 19.7801 15.8404 20.6672 15.1245 21.3831C13.6754 22.8322 11.3359 22.8331 9.8745 21.385C9.0435 20.5616 8.63143 19.3576 8.80279 18.2534C8.96821 17.1874 9.54086 16.2542 10.3788 15.6851C11.3627 15.0171 12.5441 14.8501 13.6641 15.2209ZM5.17793 15.7782C4.27907 16.2567 1.81593 17.7174 1.72343 17.8269C1.46921 18.1276 1.71207 18.6305 2.11157 18.6305C2.33579 18.6305 5.68686 16.725 5.914 16.4683C6.10622 16.2511 6.09214 16.0314 5.87193 15.8111C5.65007 15.5893 5.5425 15.5841 5.17793 15.7782ZM19.1293 15.8038C18.9016 16.0315 18.8854 16.2489 19.0799 16.4679C19.3069 16.7238 22.6602 18.6305 22.8831 18.6305C23.2823 18.6305 23.5237 18.1285 23.2704 17.8254C23.1301 17.6574 19.7252 15.6949 19.4938 15.6486C19.3564 15.6211 19.2792 15.6539 19.1293 15.8038ZM14.0077 23.671C16.3791 24.1209 18.4613 25.7016 19.5666 27.8913C19.7733 28.3006 20.1545 29.3955 20.2241 29.7793L20.2666 30.0139H12.4969H4.72736L4.76986 29.7793C4.79321 29.6503 4.90936 29.2528 5.02786 28.8959C5.68614 26.9139 7.05643 25.3311 8.93186 24.3865C9.85036 23.9239 10.7087 23.6784 11.8715 23.5459C12.2566 23.5019 13.5006 23.5748 14.0077 23.671Z" fill="black"/>
</svg>
