<svg xmlns="http://www.w3.org/2000/svg" height="100%" viewBox="0 0 50 43" fill="none"><path fill-rule="evenodd" clip-rule="evenodd" d="M1.45093 0.295838C0.805141 0.618214 0.28107 1.23441 0.0905087 1.89518C0.0121607 2.16672 -0.0147746 7.44041 0.0075786 18.1504L0.0405494 34.0036L0.378754 34.5517C0.588427 34.8914 0.925066 35.2287 1.26405 35.4388L1.81115 35.7776L10.5657 35.8076C15.3807 35.8241 19.3214 35.8745 19.3229 35.9196C19.3245 35.9647 19.0363 37.173 18.6827 38.605L18.0397 41.2084H15.9612C13.933 41.2084 13.8767 41.2147 13.6396 41.4675C13.3066 41.8227 13.314 42.4353 13.6552 42.7566L13.914 43H25.0359H36.1579L36.401 42.7409C36.7339 42.3857 36.7265 41.7731 36.3853 41.4518C36.139 41.22 36.0279 41.2084 34.0637 41.2084H32.0009L31.3579 38.605C31.0042 37.173 30.7161 35.9647 30.7177 35.9196C30.7191 35.8745 34.6599 35.8241 39.4749 35.8076L48.2294 35.7776L48.7765 35.4388C49.1155 35.2287 49.4521 34.8914 49.6618 34.5517L50 34.0036V17.9176V1.83158L49.6618 1.28346C49.4521 0.943726 49.1155 0.606457 48.7764 0.396392L48.2293 0.0575552L25.1364 0.0287772L2.04351 0L1.45093 0.295838ZM47.8981 2.06336L48.2117 2.33367L48.241 15.9483L48.2703 29.563H25.0216H1.77292V16.0054V2.44778L2.09962 2.12047L2.42631 1.79317H25.0054H47.5845L47.8981 2.06336ZM8.27481 11.0103C8.12292 11.1723 8.03183 11.4134 8.03183 11.6532C8.03183 12.0042 8.24508 12.251 10.5177 14.5294L13.0035 17.0218L10.5177 19.5141C8.18137 21.8565 8.03183 22.0312 8.03183 22.4174C8.03183 22.9156 8.43653 23.2924 8.97178 23.2924C9.28204 23.2924 9.66294 22.9506 12.2538 20.3482C14.9409 17.6491 15.1849 17.3722 15.1849 17.0218C15.1849 16.6714 14.9409 16.3945 12.2538 13.6953C9.50401 10.9332 9.29791 10.7512 8.92026 10.7512C8.64419 10.7512 8.44156 10.8325 8.27481 11.0103ZM15.4278 11.0103C15.2759 11.1723 15.1849 11.4134 15.1849 11.6532C15.1849 12.0042 15.3981 12.251 17.6708 14.5294L20.1566 17.0218L17.6708 19.5141C15.3344 21.8565 15.1849 22.0312 15.1849 22.4174C15.1849 22.9156 15.5896 23.2924 16.1248 23.2924C16.4351 23.2924 16.816 22.9506 19.4068 20.3482C22.0939 17.6491 22.3379 17.3722 22.3379 17.0218C22.3379 16.6714 22.0939 16.3945 19.4068 13.6953C16.657 10.9332 16.4509 10.7512 16.0733 10.7512C15.7972 10.7512 15.5946 10.8325 15.4278 11.0103ZM22.5809 11.0103C22.429 11.1723 22.3379 11.4134 22.3379 11.6532C22.3379 12.0042 22.5511 12.251 24.8238 14.5294L27.3096 17.0218L24.8238 19.5141C22.4874 21.8565 22.3379 22.0312 22.3379 22.4174C22.3379 22.9156 22.7426 23.2924 23.2778 23.2924C23.5881 23.2924 23.969 22.9506 26.5599 20.3482C29.2469 17.6491 29.4909 17.3722 29.4909 17.0218C29.4909 16.6714 29.2469 16.3945 26.5599 13.6953C23.8101 10.9332 23.604 10.7512 23.2263 10.7512C22.9503 10.7512 22.7476 10.8325 22.5809 11.0103ZM31.5222 21.7599C31.1892 22.1151 31.1966 22.7277 31.5378 23.049C31.7953 23.2912 31.8204 23.2924 36.6596 23.2924H41.5227L41.7657 23.0333C42.0987 22.6781 42.0913 22.0655 41.7501 21.7442C41.4926 21.502 41.4676 21.5008 36.6283 21.5008H31.7652L31.5222 21.7599ZM48.2505 32.4154C48.2167 33.3409 48.1792 33.5088 47.9571 33.7312L47.7025 33.986H25.0075H2.31242L2.04262 33.6718C1.80098 33.3904 1.77292 33.2534 1.77292 32.3561V31.3546H25.0311H48.2892L48.2505 32.4154ZM29.4122 38.437C29.7659 39.869 30.054 41.0782 30.0524 41.1244C30.051 41.1707 27.7865 41.2084 25.0203 41.2084C22.2541 41.2084 19.9896 41.1707 19.9881 41.1244C19.9866 41.0782 20.2747 39.869 20.6283 38.437L21.2713 35.8336H25.0203H28.7692L29.4122 38.437Z" fill="url(#paint0_linear_158_95)"></path><defs><linearGradient id="paint0_linear_158_95" x1="25" y1="0" x2="25" y2="43" gradientUnits="userSpaceOnUse"><stop stop-color="#84fdc6"></stop><stop offset="1" stop-color="#84fdc6"></stop></linearGradient></defs></svg>