<svg xmlns="http://www.w3.org/2000/svg" height="100%" viewBox="0 0 40 34" fill="none"><path fill-rule="evenodd" clip-rule="evenodd" d="M2.20947 0.0588244C1.41369 0.247343 0.583475 0.941158 0.224907 1.71746L0 2.20436V15.234V28.2635L0.246193 28.7343C0.549199 29.3137 1.1502 29.8885 1.7437 30.1667L2.19116 30.3764L10.5884 30.3977L18.9856 30.419L19.2161 30.1886C19.4977 29.907 19.5109 29.6383 19.2577 29.3439L19.0689 29.1244L10.6955 29.0852L2.32193 29.0461L1.98691 28.8106C1.78408 28.668 1.57302 28.4219 1.45204 28.1867L1.25209 27.7982V15.1969V2.59564L1.43615 2.22181C1.63508 1.81786 1.95749 1.53457 2.3789 1.39348C2.57438 1.32805 6.95506 1.30442 18.8951 1.30442H35.1452L35.5431 1.50264C35.7915 1.62652 36.0249 1.82216 36.1649 2.02414L36.3889 2.34741L36.4098 8.10594L36.4306 13.8645L35.9793 13.8759C35.3724 13.8912 35.028 14.0553 34.4073 14.6245C32.5415 16.3357 28.5058 20.3023 26.263 22.6291C22.6217 26.407 22.125 26.9438 21.9462 27.2943C21.6388 27.8968 20.5299 32.2145 20.5964 32.5499C20.6581 32.8615 21.0176 33.2121 21.3368 33.272C21.5402 33.3102 22.0404 33.2099 23.287 32.881C26.6315 31.9987 26.5293 32.0409 27.5745 31.1084L28.3073 30.4547L31.9196 30.4156L35.5319 30.3764L36.0469 30.1228C36.6671 29.8173 37.2168 29.2574 37.5096 28.6327C37.7186 28.1868 37.7194 28.1781 37.7434 26.0624L37.7675 23.9396L37.5869 23.7386C37.3877 23.517 37.2026 23.4686 36.8794 23.5535C36.4691 23.6612 36.4281 23.8792 36.4281 25.9536C36.4281 27.3791 36.4018 27.9011 36.3201 28.0967C36.1687 28.4588 35.7037 28.8865 35.3441 28.9943C35.1395 29.0556 34.1833 29.0852 32.4139 29.0852H29.7873L31.2491 27.6861C34.4577 24.615 39.5104 19.3594 39.8445 18.7455C40.08 18.3126 40.0424 17.2137 39.7697 16.5643C39.4685 15.8469 38.8541 15.063 38.2619 14.6405L37.7622 14.2838L37.7407 8.24234L37.7193 2.20092L37.4631 1.68052C37.1457 1.03593 36.5273 0.448303 35.8996 0.194833L35.4499 0.0132013L18.977 0.00114995C9.55174 -0.00573656 2.37811 0.018914 2.20947 0.0588244ZM14.2212 7.65222C13.8238 7.84895 13.4471 8.28061 13.3414 8.66047C13.2387 9.02968 13.2387 21.36 13.3414 21.7292C13.4479 22.112 13.8596 22.5835 14.237 22.7549C14.632 22.9342 15.301 22.9451 15.6355 22.7776C15.7732 22.7086 18.2238 21.2736 21.0813 19.5886C26.6382 16.312 26.6129 16.3295 26.8096 15.5992C26.9294 15.1544 26.8345 14.672 26.5438 14.2471C26.3133 13.9103 25.8985 13.6479 21.2073 10.8728C18.4097 9.21773 15.9446 7.77915 15.7294 7.67593C15.229 7.43584 14.676 7.42715 14.2212 7.65222ZM20.0514 11.7189C22.7531 13.3149 25.0957 14.7064 25.2571 14.8111C25.6208 15.047 25.6494 15.3106 25.3353 15.5303C25.0189 15.7515 15.2041 21.5392 15.0537 21.5932C14.9832 21.6184 14.8512 21.587 14.7602 21.5232L14.5947 21.4073V15.206C14.5947 10.4872 14.6172 8.98233 14.6886 8.91088C14.7403 8.85923 14.8628 8.81698 14.9609 8.81698C15.059 8.81698 17.3497 10.1228 20.0514 11.7189ZM37.0012 15.4202C37.2393 15.5255 37.5948 15.7598 37.7911 15.9407C38.2661 16.3785 38.6975 17.2355 38.6975 17.7413C38.6975 18.1815 38.6573 18.2357 37.1056 19.8902C33.7657 23.4514 31.0172 26.1706 27.3895 29.503C26.2318 30.5664 25.9988 30.7455 25.594 30.8833C25.3382 30.9703 25.074 31.0416 25.0069 31.0416C24.9399 31.0416 24.7971 30.8744 24.6895 30.6699C24.4329 30.182 23.6166 29.3807 23.1417 29.1506L22.7645 28.9678L22.9214 28.4271C23.0561 27.9626 23.1553 27.8025 23.6242 27.2924C25.2703 25.5017 29.0161 21.6506 31.0639 19.6434L33.408 17.346L34.5912 18.5203C35.9076 19.8269 36.0169 19.883 36.4341 19.4658C36.85 19.0499 36.7934 18.9381 35.5086 17.6409L34.3543 16.4756L34.9625 15.8908C35.297 15.569 35.6492 15.2725 35.745 15.2316C35.9973 15.1242 36.5038 15.2002 37.0012 15.4202Z" fill="url(#paint0_linear_158_87)"></path><defs><linearGradient id="paint0_linear_158_87" x1="20" y1="0" x2="20" y2="33.2797" gradientUnits="userSpaceOnUse"><stop stop-color="#84fdc6"></stop><stop offset="1" stop-color="#84fdc6"></stop></linearGradient></defs></svg>