<svg xmlns="http://www.w3.org/2000/svg" height="100%" viewBox="0 0 49 47" fill="none"><path fill-rule="evenodd" clip-rule="evenodd" d="M17.02 0.0831569C16.2058 0.330863 15.4467 0.937037 14.8795 1.79255C14.6437 2.14804 14.1248 3.16744 13.7265 4.05767C13.3282 4.94799 12.892 5.84301 12.7572 6.0468C12.2359 6.83451 11.5849 7.05105 9.06164 7.27631C7.50956 7.41488 6.71204 7.58712 5.9594 7.94645C5.23284 8.29322 4.64004 8.89987 4.28247 9.66255C4.04801 10.1629 4.02769 10.3036 4.03114 11.4055C4.0344 12.4369 4.07985 12.7849 4.35688 13.8989C4.53945 14.6328 4.69834 15.5505 4.72375 16.0178C4.78656 17.1717 4.63793 17.472 3.49262 18.5056C1.53703 20.2706 0.672479 21.199 0.327466 21.905C0.0246438 22.5244 0 22.6435 0 23.4873C0 24.367 0.0137123 24.4254 0.380397 25.112C0.786685 25.8728 1.68988 26.8525 3.41936 28.4085C4.92445 29.7627 4.97623 30.014 4.3634 32.9912C3.9479 35.0092 3.88759 35.9376 4.1161 36.796C4.39667 37.85 4.99896 38.5506 6.0456 39.0405C6.79086 39.3893 7.56805 39.5468 9.49315 39.7395C10.337 39.824 11.2647 39.9601 11.5548 40.0419C12.4697 40.2999 12.7223 40.6453 13.8613 43.1959C14.5574 44.7543 14.9507 45.4079 15.5392 45.9844C16.2286 46.6595 16.7901 46.9086 17.7453 46.9624C18.4203 47.0004 18.6221 46.97 19.343 46.7216C19.7969 46.5651 20.7303 46.106 21.4172 45.7012C22.1043 45.2965 22.9525 44.8315 23.3022 44.6678C23.8759 44.3993 24.0059 44.3745 24.6318 44.4147C25.3928 44.4636 25.6709 44.5884 27.8626 45.8653C30.2901 47.2796 31.8221 47.3637 33.2872 46.163C33.8926 45.6669 34.4835 44.7011 35.2848 42.8981C36.5434 40.0663 36.5573 40.056 39.5579 39.7442C41.4603 39.5465 42.1976 39.3906 43.0178 39.0126C43.8007 38.6516 44.3508 38.101 44.7135 37.3149C44.9139 36.8805 44.9721 36.5868 45.002 35.8596C45.0344 35.0755 44.9849 34.6826 44.6465 33.0383C44.1618 30.6827 44.144 30.1167 44.5357 29.5251C44.935 28.9222 44.9566 28.8999 46.0874 27.9233C47.4836 26.7174 48.3152 25.7947 48.6878 25.0382C48.9706 24.4639 49 24.3223 49 23.5345C49 22.7168 48.9777 22.6195 48.6256 21.9068C48.3239 21.2957 48.0637 20.9613 47.2832 20.1819C46.7507 19.6501 45.9622 18.9034 45.531 18.5226C44.464 17.5806 44.2052 17.0647 44.2798 16.0282C44.309 15.6219 44.4745 14.6852 44.6476 13.9468C44.9117 12.8195 44.963 12.4117 44.9674 11.4035C44.9724 10.237 44.9637 10.1846 44.66 9.56781C43.9493 8.12386 42.674 7.5198 39.8297 7.27986C36.6431 7.01096 36.4234 6.858 35.2934 4.12355C34.3853 1.92575 33.6826 0.934927 32.6359 0.377086C31.4276 -0.267064 29.9092 -0.0841859 28.1918 0.912199C25.1596 2.67136 24.801 2.80869 23.9171 2.54947C23.6312 2.46556 23.0521 2.19705 22.6301 1.9526C19.624 0.211373 19.1055 -0.00593272 17.9795 0.00384892C17.5839 0.00730127 17.1521 0.0429755 17.02 0.0831569ZM18.9169 2.77177C19.2478 2.92837 19.9598 3.31407 20.4991 3.62891C23.7928 5.55167 25.066 5.62312 27.7958 4.03849C29.7534 2.90209 30.6151 2.48695 31.0162 2.48695C31.7146 2.48695 32.0787 2.99703 33.2617 5.6329C34.1514 7.61503 34.8343 8.476 35.9694 9.04612C36.6643 9.39519 37.4748 9.56061 39.3274 9.73141C41.2154 9.90537 41.8742 10.0662 42.2539 10.4459C42.4976 10.6896 42.5272 10.7856 42.5255 11.3262C42.5244 11.67 42.3766 12.5771 42.1843 13.4194C41.752 15.3132 41.6492 16.8676 41.9047 17.6483C42.2602 18.7351 42.8515 19.4793 44.637 21.0869C46.3733 22.6504 46.6501 23.0362 46.5162 23.7056C46.4172 24.2007 46.0009 24.7038 44.9275 25.6262C43.4602 26.8871 43.0402 27.3024 42.5646 27.9632C41.6198 29.2758 41.5066 30.5372 42.1058 33.0786C42.2985 33.8961 42.4767 34.9218 42.5017 35.3579C42.5833 36.78 42.3367 36.9185 39.1323 37.2507C36.5779 37.5156 35.6637 37.8421 34.7297 38.8237C34.1025 39.483 33.6587 40.2663 32.9747 41.9217C32.3536 43.4246 32.0882 43.9024 31.6863 44.2407C31.1055 44.7294 30.6016 44.5662 27.9521 43.0317C27.3455 42.6804 26.5167 42.2819 26.1101 42.1461C24.2952 41.5398 23.2428 41.7482 20.7368 43.21C17.4883 45.1047 17.3938 45.0745 15.9257 41.6676C14.9666 39.4421 14.3125 38.5871 13.1012 37.9755C12.3417 37.5921 11.6494 37.438 9.84296 37.2505C6.89577 36.9445 6.47701 36.7477 6.47433 35.6678C6.47375 35.4305 6.64674 34.3948 6.85866 33.3663C7.66529 29.4527 7.33849 28.4307 4.51366 26.03C3.34255 25.0348 2.6017 24.1749 2.4944 23.6862C2.41078 23.3055 2.69855 22.6712 3.17493 22.1863C3.38014 21.9776 4.08052 21.3386 4.73142 20.7664C7.35221 18.4626 7.63997 17.4937 6.85616 13.6112C6.64521 12.5662 6.47327 11.5237 6.47404 11.2946C6.47759 10.2312 6.90593 10.0319 9.84296 9.7269C12.3304 9.46865 13.1881 9.1869 14.0934 8.33062C14.8012 7.66125 15.0895 7.18482 15.9217 5.31039C16.3117 4.43177 16.7402 3.52649 16.8736 3.29873C17.3864 2.42366 17.9006 2.29103 18.9169 2.77177ZM32.4908 16.6916C32.2574 16.7574 31.0739 17.9921 27.3769 22.0269C24.7313 24.9143 22.5104 27.3166 22.4414 27.3653C22.3536 27.4275 21.5339 26.9951 19.6923 25.9149C16.4986 24.0416 16.541 24.0633 16.0904 24.0675C15.4013 24.0739 14.9124 24.5699 14.9119 25.2628C14.9114 25.9642 15.0904 26.1179 17.7018 27.6593C22.2622 30.3514 22.1959 30.3165 22.6528 30.2684C22.8761 30.2448 23.1669 30.1547 23.299 30.0681C23.5795 29.8843 33.7932 18.7794 33.9658 18.4706C34.1403 18.1582 34.1117 17.6293 33.9015 17.2845C33.5803 16.7578 33.0488 16.5344 32.4908 16.6916Z" fill="url(#paint0_linear_158_68)"></path><defs><linearGradient id="paint0_linear_158_68" x1="24.5" y1="0" x2="24.5" y2="47" gradientUnits="userSpaceOnUse"><stop stop-color="#84fdc6"></stop><stop offset="1" stop-color="#84fdc6"></stop></linearGradient></defs></svg>