<svg xmlns="http://www.w3.org/2000/svg" height="100%" viewBox="0 0 30 53" fill="none"><path fill-rule="evenodd" clip-rule="evenodd" d="M13.6238 0.113585C13.5225 0.172542 10.4015 6.29779 6.68833 13.7252C1.69162 23.72 -0.046274 27.2875 0.000932908 27.4522C0.0360804 27.5746 0.179556 27.7791 0.31994 27.9067L0.575043 28.1386H5.27006C8.98477 28.1386 9.95437 28.1655 9.91365 28.2674C9.88531 28.3383 7.66978 33.6143 4.99022 39.9918C2.31077 46.3694 0.100707 51.7034 0.0790616 51.8451C0.0575196 51.9871 0.133586 52.2532 0.248614 52.4378C0.43167 52.7315 0.511447 52.7724 0.896936 52.7705C1.15699 52.7691 1.42631 52.6954 1.55629 52.5901C1.95064 52.2704 29.8372 19.0783 29.9412 18.8046C30.075 18.4528 29.9795 18.1116 29.6644 17.8154L29.4072 17.5737L24.1122 17.5222L18.8173 17.4707L23.9658 9.3282C29.5101 0.559886 29.3903 0.781902 28.8613 0.253041L28.6084 0L21.2083 0.00309215C16.2734 0.00525666 13.7468 0.0420533 13.6238 0.113585ZM26.5376 1.79726C26.5376 1.822 26.1125 2.50609 25.593 3.31757C18.0547 15.0922 16.1273 18.1821 16.1273 18.4929C16.1273 18.6829 16.2166 18.9191 16.3375 19.0488C16.453 19.1729 16.5575 19.2849 16.5694 19.2978C16.5814 19.3107 18.9622 19.3455 21.8601 19.3751L27.129 19.429L15.7192 32.9568C9.44375 40.397 4.27532 46.5184 4.23378 46.5601C4.13019 46.6636 3.91405 47.1862 8.24977 36.8482C10.8495 30.6492 12.1426 27.4467 12.1473 27.1949C12.1526 26.9144 12.0891 26.7638 11.899 26.6057C11.6497 26.3982 11.5354 26.3932 7.03125 26.3898C4.49435 26.3879 2.41879 26.3631 2.41879 26.3346C2.41879 26.3062 5.17854 20.7635 8.55166 14.0176L14.6845 1.75222H20.6111C23.8706 1.75222 26.5376 1.77242 26.5376 1.79726Z" fill="url(#paint0_linear_158_57)"></path><defs><linearGradient id="paint0_linear_158_57" x1="15" y1="0" x2="15" y2="52.7705" gradientUnits="userSpaceOnUse"><stop stop-color="#84fdc6"></stop><stop offset="1" stop-color="#84fdc6"></stop></linearGradient></defs></svg>