<svg xmlns="http://www.w3.org/2000/svg" height="100%" viewBox="0 0 45 48" fill="none"><path fill-rule="evenodd" clip-rule="evenodd" d="M20.3143 0.132399C12.9293 1.20951 7.16773 6.51857 5.72484 13.5761C5.54698 14.4459 5.51341 14.9665 5.47843 17.3957L5.43786 20.2083L3.74484 20.2403C2.11253 20.2712 2.03279 20.2817 1.52189 20.5325C0.921544 20.8274 0.483482 21.2792 0.196415 21.8997C0.00326432 22.3172 0 22.4216 0 28.2464C0 33.8319 0.0100726 34.1947 0.176363 34.6261C0.403554 35.2149 0.89114 35.7505 1.48635 36.0646L1.95855 36.3138L5.91221 36.3409L9.86577 36.3682L10.0858 36.1615L10.3057 35.9548V28.2913V20.6277L10.1097 20.45C9.93684 20.2934 9.73231 20.2688 8.38427 20.2428L6.85492 20.2131L6.85651 18.191C6.85884 15.2818 7.038 13.8373 7.61605 12.0668C8.87791 8.20143 11.8542 4.87973 15.715 3.02788C20.8749 0.552834 26.951 0.947061 31.7565 4.06852C34.8752 6.09441 37.1587 9.1198 38.143 12.5302C38.6024 14.1218 38.6802 14.7952 38.7276 17.591L38.7722 20.2257H37.3287C36.0096 20.2257 35.8641 20.2424 35.6395 20.419L35.3938 20.6123V28.2999C35.3938 35.863 35.3968 35.9903 35.5803 36.1739C35.7461 36.3397 35.8912 36.3604 36.886 36.3604H38.0052V38.6579C38.0052 40.2045 37.9677 41.0808 37.8905 41.3392C37.8205 41.5739 37.5939 41.9101 37.3076 42.204C36.5779 42.9534 36.4114 42.9822 32.8091 42.9822C30.4755 42.9822 29.7845 42.9558 29.7587 42.8656C29.4583 41.818 29.0058 41.1296 28.2285 40.5375C25.8324 38.7126 22.3582 40.1148 21.8445 43.114C21.457 45.3765 23.2255 47.5873 25.5296 47.7207C27.4941 47.8344 29.1995 46.6302 29.6985 44.777L29.8051 44.3811H33.0022C36.4551 44.3811 36.7587 44.3464 37.5989 43.8549C38.0842 43.5711 38.7667 42.8476 39.0229 42.3455C39.4303 41.5467 39.4974 41.022 39.4974 38.6329V36.3747L41.2927 36.3442C43.0835 36.3139 43.0894 36.3131 43.5879 36.037C43.8627 35.8847 44.2277 35.5965 44.3989 35.3965C45.0109 34.6815 45 34.8108 45 28.2904C45 22.0758 45.0015 22.0994 44.5607 21.428C43.9979 20.5707 43.0639 20.2257 41.3053 20.2257H40.1681L40.1249 17.3112C40.0765 14.0405 40.005 13.527 39.3073 11.4306C37.2951 5.38495 31.6098 0.921134 24.8573 0.0852072C23.793 -0.0465752 21.3684 -0.0213938 20.3143 0.132399ZM8.90673 28.3442V34.9703L5.61488 34.9426C1.96704 34.9118 2.01833 34.9203 1.62802 34.2803C1.45315 33.9935 1.44625 33.7678 1.44597 28.3117C1.4456 22.0541 1.42573 22.271 2.03307 21.9007C2.31426 21.7292 2.52298 21.7186 5.61917 21.7183L8.90673 21.7179V28.3442ZM42.9497 21.8891C43.6212 22.2426 43.6007 22.0419 43.6007 28.2931C43.6007 34.4695 43.6185 34.2761 43.0115 34.7217C42.7604 34.9059 42.611 34.9161 39.7706 34.944L36.7927 34.9733V28.3456V21.7179H39.7087C42.3569 21.7179 42.6545 21.7336 42.9497 21.8891ZM26.9743 41.4542C28.8582 42.3575 28.8534 45.0621 26.9662 46.0344C26.581 46.2329 26.359 46.2811 25.8342 46.2802C25.0641 46.2787 24.6583 46.1253 24.1045 45.6259C22.9835 44.6153 22.981 42.8435 24.099 41.8355C24.9259 41.0901 25.9355 40.9562 26.9743 41.4542Z" fill="url(#paint0_linear_158_101)"></path><defs><linearGradient id="paint0_linear_158_101" x1="22.5" y1="0" x2="22.5" y2="47.7281" gradientUnits="userSpaceOnUse"><stop stop-color="#84fdc6"></stop><stop offset="1" stop-color="#84fdc6"></stop></linearGradient></defs></svg>