<svg width="14" height="19" viewBox="0 0 14 19" fill="none" xmlns="http://www.w3.org/2000/svg">
<path d="M5.54673 18.215C3.91307 18.0973 2.2984 17.6861 1.30815 17.1355C0.744095 16.822 0.314367 16.4367 0.145739 16.0932L0.0454102 15.8889V9.47921V3.06957L0.1248 2.90837C0.479581 2.18808 1.61185 1.53872 3.19243 1.14911C3.72896 1.01684 4.50352 0.885122 5.13542 0.818702C5.78066 0.750861 7.49094 0.761183 8.13458 0.836903C9.84525 1.03788 11.3009 1.48783 12.198 2.09291C12.544 2.32625 12.8989 2.69963 13.0192 2.95663L13.1223 3.17698L13.1135 9.56723L13.1047 15.9575L13.0219 16.1257C12.9764 16.2181 12.8389 16.4001 12.7163 16.53C11.9704 17.3207 10.3704 17.9056 8.27171 18.1549C7.84395 18.2057 5.98559 18.2467 5.54673 18.215ZM8.55732 12.7228C8.55104 12.7064 8.30683 12.4889 8.01462 12.2393C7.72242 11.9898 7.47075 11.7739 7.45536 11.7595C7.43998 11.7452 7.49397 11.6945 7.57534 11.6468C7.6567 11.5991 7.81259 11.4664 7.92176 11.3519C8.24102 11.0171 8.39165 10.6036 8.39165 10.0619C8.39165 9.52865 8.2292 9.0984 7.90381 8.76997C7.57586 8.43892 7.19932 8.29667 6.65098 8.29667C5.80575 8.29667 5.15662 8.78987 4.94943 9.58945C4.87816 9.86448 4.87854 10.4202 4.95017 10.6641C5.13702 11.3002 5.6459 11.7622 6.27923 11.8707C6.49355 11.9074 6.52257 11.9232 6.66869 12.083C6.75553 12.1779 6.93372 12.3674 7.06468 12.5041L7.30279 12.7526H7.93578C8.28392 12.7526 8.56361 12.7392 8.55732 12.7228ZM6.38657 10.9505C6.23419 10.8711 6.17658 10.8094 6.08968 10.6327C6.02256 10.4963 6.01109 10.4187 6.01033 10.0962C6.00959 9.76851 6.02001 9.6977 6.09009 9.55541C6.20474 9.32256 6.36274 9.21234 6.60715 9.19466C6.94736 9.16998 7.14374 9.33695 7.24667 9.73822C7.37286 10.2302 7.23409 10.7532 6.93133 10.9268C6.77249 11.0179 6.53556 11.0282 6.38657 10.9505ZM3.5809 11.8637C4.24455 11.7378 4.62128 11.3519 4.62128 10.7979C4.62128 10.3063 4.37806 10.0199 3.70585 9.71986C3.32105 9.54808 3.18167 9.44025 3.18167 9.31427C3.18167 9.20985 3.31394 9.09543 3.46793 9.06668C3.61827 9.03861 4.01703 9.10787 4.25251 9.20298L4.4499 9.28272V8.84581V8.40887L4.23567 8.36135C4.10327 8.33198 3.82505 8.31436 3.50729 8.31526C3.05719 8.31526 2.96906 8.32622 2.79968 8.39349C2.30491 8.58991 2.07012 8.9245 2.07388 9.42781C2.07739 9.89898 2.32596 10.1929 2.94458 10.4573C3.30959 10.6133 3.45589 10.7321 3.45589 10.8725C3.45589 11.1708 2.95883 11.2075 2.43257 10.9481C2.28845 10.877 2.15896 10.8131 2.14482 10.806C2.13068 10.7989 2.11912 11.003 2.11912 11.2596C2.11912 11.7239 2.11961 11.7261 2.20368 11.7581C2.52027 11.8785 3.22 11.9321 3.5809 11.8637ZM11.168 11.4329V11.0388H10.5682H9.96835V9.68486V8.33096H9.43708H8.90581V10.079V11.8271H10.0369H11.168V11.4329ZM7.4662 4.52542C8.52195 4.45219 9.31334 4.31394 10.0097 4.0811C10.7035 3.84913 11.1134 3.56844 11.205 3.26247C11.2404 3.14457 11.2378 3.09984 11.1885 2.97057C10.9671 2.39101 9.73068 1.94574 7.84131 1.7652C7.03311 1.68796 5.5633 1.713 4.7927 1.81709C3.61688 1.97596 2.66264 2.27106 2.23835 2.60702C1.38005 3.28668 2.28771 4.03421 4.39849 4.38606C5.31372 4.53862 6.49947 4.59249 7.4662 4.52542Z" fill="white"/>
</svg>
