<svg width="29" height="28" viewBox="0 0 29 28" fill="none" xmlns="http://www.w3.org/2000/svg">
<path d="M9.61686 9.37067C10.5417 9.37067 11.4287 9.00327 12.0827 8.34929C12.7367 7.69531 13.1041 6.80832 13.1041 5.88346C13.1041 4.95859 12.7367 4.0716 12.0827 3.41762C11.4287 2.76364 10.5417 2.39624 9.61686 2.39624C8.69199 2.39624 7.80501 2.76364 7.15103 3.41762C6.49705 4.0716 6.12965 4.95859 6.12965 5.88346C6.12965 6.80832 6.49705 7.69531 7.15103 8.34929C7.80501 9.00327 8.69199 9.37067 9.61686 9.37067ZM3.22363 12.5882C3.22363 11.4514 4.1431 10.5331 5.27876 10.5331H10.82C10.4113 11.2396 10.1967 12.0417 10.1981 12.8579C10.1973 13.5177 10.3373 14.17 10.6087 14.7713C10.8801 15.3727 11.2767 15.9092 11.772 16.3451H10.5096C9.85445 16.3451 9.21492 16.545 8.67636 16.918C8.13779 17.291 7.72583 17.8195 7.49547 18.4328C5.75419 18.0073 4.67431 17.0577 4.03848 15.9999C3.22363 14.6433 3.22363 13.2485 3.22363 13.0055V12.5882ZM19.4973 12.8579C19.4987 12.0417 19.2842 11.2396 18.8754 10.5331H24.4166C25.5534 10.5331 26.4717 11.4525 26.4717 12.5882V13.0067C26.4717 13.2473 26.4717 14.6433 25.6581 15.9999C25.0211 17.0577 23.9412 18.0073 22.1999 18.4328C21.9697 17.8194 21.5578 17.2909 21.0192 16.9178C20.4806 16.5448 19.841 16.345 19.1858 16.3451H17.9234C18.4187 15.9092 18.8153 15.3727 19.0867 14.7713C19.3581 14.17 19.4981 13.5177 19.4973 12.8579ZM23.5657 5.88346C23.5657 6.80832 23.1983 7.69531 22.5443 8.34929C21.8904 9.00327 21.0034 9.37067 20.0785 9.37067C19.1536 9.37067 18.2667 9.00327 17.6127 8.34929C16.9587 7.69531 16.5913 6.80832 16.5913 5.88346C16.5913 4.95859 16.9587 4.0716 17.6127 3.41762C18.2667 2.76364 19.1536 2.39624 20.0785 2.39624C21.0034 2.39624 21.8904 2.76364 22.5443 3.41762C23.1983 4.0716 23.5657 4.95859 23.5657 5.88346ZM8.45446 19.5626C8.45446 18.4258 9.37392 17.5075 10.5096 17.5075H19.1858C20.3215 17.5075 21.2409 18.427 21.2409 19.5626V19.9811C21.2409 20.2217 21.2409 21.6178 20.4272 22.9743C19.5636 24.4087 17.885 25.6443 14.8477 25.6443C11.8103 25.6443 10.1306 24.4087 9.26814 22.9743C8.45446 21.6178 8.45446 20.2229 8.45446 19.9799V19.5626ZM14.8477 16.3451C15.3056 16.3451 15.7591 16.2549 16.1822 16.0797C16.6053 15.9044 16.9897 15.6475 17.3135 15.3237C17.6373 14.9999 17.8942 14.6155 18.0695 14.1924C18.2447 13.7693 18.3349 13.3158 18.3349 12.8579C18.3349 12.3999 18.2447 11.9465 18.0695 11.5234C17.8942 11.1003 17.6373 10.7159 17.3135 10.3921C16.9897 10.0682 16.6053 9.81137 16.1822 9.63612C15.7591 9.46087 15.3056 9.37067 14.8477 9.37067C13.9228 9.37067 13.0358 9.73807 12.3819 10.3921C11.7279 11.046 11.3605 11.933 11.3605 12.8579C11.3605 13.7828 11.7279 14.6697 12.3819 15.3237C13.0358 15.9777 13.9228 16.3451 14.8477 16.3451Z" fill="#04ADAB"/>
</svg>
