<svg width="20" height="21" viewBox="0 0 20 21" fill="none" xmlns="http://www.w3.org/2000/svg">
<path d="M19 6.45508C17.7075 6.45359 16.4684 5.9395 15.5545 5.02558C14.6406 4.11166 14.1265 2.87255 14.125 1.58008C14.125 1.48062 14.0855 1.38524 14.0152 1.31491C13.9448 1.24459 13.8495 1.20508 13.75 1.20508H10C9.90054 1.20508 9.80516 1.24459 9.73483 1.31491C9.66451 1.38524 9.625 1.48062 9.625 1.58008V13.9551C9.62495 14.3577 9.51684 14.753 9.31194 15.0997C9.10705 15.4463 8.81289 15.7316 8.46015 15.9258C8.1074 16.12 7.70901 16.216 7.30653 16.2037C6.90404 16.1915 6.51223 16.0715 6.17195 15.8561C5.83168 15.6408 5.55542 15.3382 5.37199 14.9797C5.18857 14.6212 5.1047 14.2201 5.12915 13.8182C5.1536 13.4163 5.28545 13.0283 5.51097 12.6947C5.73648 12.3611 6.04739 12.0941 6.41125 11.9216C6.47535 11.8911 6.52947 11.843 6.56731 11.7829C6.60515 11.7229 6.62515 11.6533 6.625 11.5823V7.58008C6.62502 7.52526 6.61303 7.47111 6.58986 7.42143C6.5667 7.37175 6.53292 7.32775 6.49091 7.29254C6.4489 7.25732 6.39968 7.23174 6.34672 7.21761C6.29376 7.20347 6.23835 7.20111 6.18438 7.2107C3.01469 7.77508 0.625 10.6738 0.625 13.9551C0.625 15.7453 1.33616 17.4622 2.60203 18.728C3.8679 19.9939 5.58479 20.7051 7.375 20.7051C9.16521 20.7051 10.8821 19.9939 12.148 18.728C13.4138 17.4622 14.125 15.7453 14.125 13.9551V9.59008C15.5926 10.4868 17.2801 10.9593 19 10.9551C19.0995 10.9551 19.1948 10.9156 19.2652 10.8452C19.3355 10.7749 19.375 10.6795 19.375 10.5801V6.83008C19.375 6.73062 19.3355 6.63524 19.2652 6.56491C19.1948 6.49459 19.0995 6.45508 19 6.45508ZM18.625 10.1976C16.9488 10.1284 15.3299 9.56837 13.9694 8.58695C13.9133 8.54648 13.8471 8.52232 13.7781 8.51714C13.7091 8.51196 13.64 8.52596 13.5785 8.55759C13.517 8.58923 13.4654 8.63726 13.4295 8.69638C13.3936 8.7555 13.3747 8.8234 13.375 8.89258V13.9551C13.375 15.5464 12.7429 17.0725 11.6176 18.1977C10.4924 19.3229 8.9663 19.9551 7.375 19.9551C5.7837 19.9551 4.25758 19.3229 3.13236 18.1977C2.00714 17.0725 1.375 15.5464 1.375 13.9551C1.375 11.1876 3.28 8.72477 5.875 8.04883V11.3591C5.41886 11.6225 5.0401 12.0013 4.77679 12.4574C4.51348 12.9136 4.37491 13.4311 4.375 13.9578C4.37509 14.4845 4.51385 15.0018 4.77733 15.4579C5.0408 15.914 5.4197 16.2926 5.87593 16.5558C6.33216 16.819 6.84964 16.9575 7.37634 16.9572C7.90304 16.957 8.42039 16.8181 8.87639 16.5545C9.33239 16.2909 9.71095 15.9119 9.97401 15.4556C10.2371 14.9993 10.3754 14.4818 10.375 13.9551V1.95508H13.3872C13.4801 3.31362 14.0617 4.59259 15.0246 5.55547C15.9875 6.51835 17.2665 7.10001 18.625 7.19289V10.1976Z" fill="white" fill-opacity="0.7"/>
<path d="M6.46479 12.0346L6.465 12.0345L14.25 9.66512C15.6881 10.5132 17.3287 10.9592 19 10.9551V11.0801C19.0001 11.0801 19.0002 11.0801 19.0003 11.0801C19.1328 11.08 19.2599 11.0273 19.3536 10.9336C19.4473 10.8399 19.5 10.7127 19.5 10.5801V6.83008C19.5 6.69747 19.4473 6.57029 19.3536 6.47652C19.2598 6.38279 19.1327 6.33012 19.0001 6.33008C17.7408 6.32863 16.5334 5.8277 15.6429 4.93719C14.7524 4.04668 14.2515 2.83931 14.25 1.57993C14.25 1.44738 14.1973 1.32026 14.1036 1.22652C14.0098 1.13276 13.8826 1.08008 13.75 1.08008H10C9.86739 1.08008 9.74021 1.13276 9.64645 1.22652C9.55268 1.32029 9.5 1.44747 9.5 1.58008V13.9551C9.5 13.9551 9.5 13.9551 9.5 13.9551C9.49995 14.3354 9.39784 14.7087 9.20434 15.0361C9.01083 15.3634 8.73301 15.6329 8.39986 15.8163C8.06671 15.9997 7.69045 16.0904 7.31033 16.0788C6.93021 16.0672 6.56016 15.9539 6.23879 15.7505C5.91742 15.5472 5.6565 15.2613 5.48327 14.9228C5.31004 14.5842 5.23083 14.2054 5.25392 13.8258C5.27701 13.4462 5.40154 13.0797 5.61453 12.7647C5.82751 12.4496 6.12115 12.1975 6.46479 12.0346ZM14.25 13.9551V9.8099L6.625 11.5823H6.75V11.5822C6.75 11.5822 6.75 11.5821 6.75 11.582L6.75 7.58013C6.75 7.58011 6.75 7.5801 6.75 7.58008C6.75002 7.50701 6.73403 7.43482 6.70315 7.3686C6.67226 7.30236 6.62723 7.2437 6.57121 7.19674L6.49091 7.29254L6.57121 7.19674C6.5152 7.14979 6.44958 7.11569 6.37896 7.09683C6.30835 7.07798 6.23446 7.07484 6.1625 7.08763L6.16246 7.08764C2.93145 7.66293 0.5 10.615 0.5 13.9551C0.5 15.7784 1.22433 17.5271 2.51364 18.8164C3.80295 20.1057 5.55164 20.8301 7.375 20.8301C9.19836 20.8301 10.947 20.1057 12.2364 18.8164C13.5257 17.5271 14.25 15.7784 14.25 13.9551ZM18.5 7.30845V10.0663L5.875 11.3591C5.41886 11.6225 5.0401 12.0013 4.77679 12.4574C4.51348 12.9136 4.37491 13.4311 4.375 13.9578C4.37509 14.4845 4.51385 15.0018 4.77733 15.4579C5.0408 15.914 5.4197 16.2926 5.87593 16.5558C6.33216 16.819 6.84964 16.9575 7.37634 16.9572C7.90304 16.957 8.42039 16.8181 8.87639 16.5545C9.33239 16.2909 9.71095 15.9119 9.97401 15.4556C10.2371 14.9993 10.3754 14.4818 10.375 13.9551H10.5V13.955V2.08008H13.2716C13.391 3.42526 13.9795 4.68718 14.9362 5.64386C15.8929 6.60053 17.1548 7.18905 18.5 7.30845ZM5.75 8.21302V11.2879L13.375 8.89258H13.25V8.89282C13.25 8.8929 13.25 8.89299 13.25 8.89307L13.25 13.9551C13.25 15.5132 12.631 17.0076 11.5293 18.1093C10.4275 19.2111 8.93315 19.8301 7.375 19.8301C5.81685 19.8301 4.32252 19.2111 3.22075 18.1093C2.11897 17.0076 1.5 15.5132 1.5 13.9551C1.5 11.2995 3.29116 8.93095 5.75 8.21302Z" stroke="white" stroke-opacity="0.7" stroke-width="0.25"/>
</svg>
