<svg width="23" height="27" viewBox="0 0 23 27" fill="none" xmlns="http://www.w3.org/2000/svg">
<g clip-path="url(#clip0_1186_3015)">
<path d="M2.40937 23.746L0.536133 0.852539L22.9074 0.898545L20.9267 23.746L11.8062 26.3869L2.40937 23.746Z" fill="#E9CA32"/>
<path d="M11.8066 24.1762V3.0332L21.0193 3.06387L19.3764 21.9804L11.8066 24.1762Z" fill="#FFDE25"/>
<path d="M10.8195 5.54297H8.38389V19.6152L6.48955 19.2544V17.3601L4.23438 16.9992V21.239L10.8195 22.9529V5.54297ZM12.6465 5.54297H19.3891L18.9381 8.24015H15.2205V12.6662H18.9381L18.4871 21.5998L12.6465 22.9529V20.1565L16.5927 18.8034L16.8206 15.1049L12.6465 15.7093V5.54297Z" fill="white"/>
</g>
<defs>
<clipPath id="clip0_1186_3015">
<rect width="22.3713" height="25.6199" fill="white" transform="translate(0.536133 0.80957)"/>
</clipPath>
</defs>
</svg>
