<svg width="25" height="23" viewBox="0 0 25 23" fill="none" xmlns="http://www.w3.org/2000/svg">
<g clip-path="url(#clip0_1186_2984)">
<path d="M15.7059 11.0737L6.43408 9.4375V21.5274C6.43408 22.0795 6.88167 22.5271 7.4338 22.5271H23.4325C23.9847 22.5271 24.4323 22.0795 24.4323 21.5274V17.0731L15.7059 11.0737Z" fill="#185C37"/>
<path d="M15.7059 0.711914H7.4338C6.88167 0.711914 6.43408 1.1595 6.43408 1.71163V6.16591L15.7059 11.6199L20.6145 13.2561L24.4323 11.6199V6.16591L15.7059 0.711914Z" fill="#21A366"/>
<path d="M6.43408 6.16504H15.7059V11.619H6.43408V6.16504Z" fill="#107C41"/>
<path opacity="0.1" d="M13.07 5.07422H6.43408V18.7092H13.07C13.6213 18.7074 14.0679 18.2609 14.0697 17.7095V6.07393C14.0679 5.52255 13.6213 5.07601 13.07 5.07422Z" fill="black"/>
<path opacity="0.2" d="M12.5246 5.61914H6.43408V19.2541H12.5246C13.0759 19.2523 13.5225 18.8058 13.5243 18.2544V6.61885C13.5225 6.06747 13.0759 5.62093 12.5246 5.61914Z" fill="black"/>
<path opacity="0.2" d="M12.5246 5.61914H6.43408V18.1633H12.5246C13.0759 18.1615 13.5225 17.715 13.5243 17.1636V6.61885C13.5225 6.06747 13.0759 5.62093 12.5246 5.61914Z" fill="black"/>
<path opacity="0.2" d="M11.9792 5.61914H6.43408V18.1633H11.9792C12.5305 18.1615 12.9771 17.715 12.9789 17.1636V6.61885C12.9771 6.06747 12.5305 5.62093 11.9792 5.61914Z" fill="black"/>
<path d="M1.97969 5.61914H11.979C12.5312 5.61914 12.9788 6.06673 12.9788 6.61885V16.6182C12.9788 17.1703 12.5312 17.6179 11.979 17.6179H1.97969C1.42757 17.6179 0.97998 17.1703 0.97998 16.6182V6.61885C0.97998 6.06673 1.42757 5.61914 1.97969 5.61914Z" fill="url(#paint0_linear_1186_2984)"/>
<path d="M4.07568 14.8687L6.17874 11.6099L4.25185 8.36914H5.80187L6.8534 10.4417C6.95049 10.6385 7.01702 10.7847 7.05302 10.8812H7.06665C7.13574 10.7242 7.20846 10.5716 7.28481 10.4237L8.40888 8.37024H9.83182L7.85584 11.5919L9.88201 14.8687H8.36798L7.15337 12.5938C7.09616 12.497 7.04761 12.3954 7.0083 12.29H6.99031C6.95473 12.3932 6.90752 12.492 6.84959 12.5845L5.59899 14.8687H4.07568Z" fill="white"/>
<path d="M23.4322 0.711914H15.7056V6.16591H24.432V1.71163C24.432 1.1595 23.9844 0.711914 23.4322 0.711914Z" fill="#33C481"/>
<path d="M15.7056 11.6201H24.432V17.0741H15.7056V11.6201Z" fill="#107C41"/>
</g>
<defs>
<linearGradient id="paint0_linear_1186_2984" x1="3.06441" y1="4.83798" x2="10.8943" y2="18.3991" gradientUnits="userSpaceOnUse">
<stop stop-color="#18884F"/>
<stop offset="0.5" stop-color="#117E43"/>
<stop offset="1" stop-color="#0B6631"/>
</linearGradient>
<clipPath id="clip0_1186_2984">
<rect width="23.4522" height="21.816" fill="white" transform="translate(0.97998 0.711914)"/>
</clipPath>
</defs>
</svg>
