<svg width="23" height="23" viewBox="0 0 23 23" fill="none" xmlns="http://www.w3.org/2000/svg">
<path d="M21.6339 11.7245C21.6339 17.4069 17.0274 22.0134 11.345 22.0134C5.66254 22.0134 1.05603 17.4069 1.05603 11.7245C1.05603 6.04206 5.66254 1.43555 11.345 1.43555C17.0274 1.43555 21.6339 6.04206 21.6339 11.7245Z" fill="#3E6FBB"/>
<path fill-rule="evenodd" clip-rule="evenodd" d="M22.4914 11.7247C22.4914 17.8807 17.501 22.8711 11.3451 22.8711C5.18912 22.8711 0.19873 17.8807 0.19873 11.7247C0.19873 5.56876 5.18912 0.578369 11.3451 0.578369C17.501 0.578369 22.4914 5.56876 22.4914 11.7247ZM11.3451 22.0136C17.0275 22.0136 21.634 17.4071 21.634 11.7247C21.634 6.04229 17.0275 1.43578 11.3451 1.43578C5.66265 1.43578 1.05614 6.04229 1.05614 11.7247C1.05614 17.4071 5.66265 22.0136 11.3451 22.0136Z" fill="white"/>
<g clip-path="url(#clip0_676_16602)">
<path d="M8.40412 15.7078C8.0362 15.7078 7.6947 15.6678 7.388 15.5857C6.82303 15.4343 6.39929 15.137 6.16242 14.7255C5.32356 13.2684 6.94306 10.8088 9.84877 9.12612C11.8316 7.97776 13.9208 7.49361 15.3023 7.86373C15.8673 8.01517 16.291 8.31247 16.5279 8.724C17.3667 10.1811 15.7476 12.6406 12.8415 14.3233C11.299 15.2168 9.69192 15.7078 8.40412 15.7078ZM14.2986 8.14341C13.0832 8.14341 11.5181 8.62176 10.0492 9.47243C7.42741 10.9905 5.80611 13.3046 6.50893 14.5258C6.69439 14.8475 7.02469 15.0742 7.49143 15.1992C8.75263 15.5367 10.7749 15.0578 12.6408 13.9772C15.2625 12.459 16.8838 10.1448 16.181 8.92366C15.9955 8.60196 15.6652 8.37529 15.1984 8.25025C14.9298 8.17843 14.6271 8.14341 14.2986 8.14341Z" fill="white"/>
<path d="M14.2856 15.7077C12.9978 15.7077 11.3909 15.2167 9.84819 14.3232C6.94228 12.6405 5.32297 10.1809 6.16204 8.72388C6.39891 8.31235 6.82264 8.01506 7.38762 7.86361C8.76825 7.4939 10.8583 7.97725 12.8411 9.12601C15.747 10.8087 17.3663 13.2683 16.5275 14.7254C16.2906 15.1369 15.8669 15.4342 15.3019 15.5856C14.9954 15.6677 14.6533 15.7077 14.2856 15.7077ZM8.39113 8.1433C8.06243 8.1433 7.75973 8.17831 7.49105 8.25013C7.0243 8.37517 6.694 8.60184 6.50854 8.92354C5.80572 10.1447 7.42703 12.4588 10.0486 13.9771C11.9146 15.0577 13.9361 15.5368 15.1981 15.1991C15.6648 15.0741 15.9951 14.8474 16.1806 14.5257C16.8834 13.3045 15.2621 10.9904 12.6405 9.47211C11.1718 8.62145 9.60651 8.1431 8.39113 8.1431V8.1433Z" fill="white"/>
<path d="M11.3451 17.7267C9.66233 17.7267 8.34412 15.0902 8.34412 11.7248C8.34412 8.35932 9.66233 5.7229 11.3451 5.7229C13.0278 5.7229 14.346 8.35932 14.346 11.7248C14.346 15.0902 13.0278 17.7267 11.3451 17.7267ZM11.3451 6.12303C9.93521 6.12303 8.74424 8.68823 8.74424 11.7248C8.74424 14.7613 9.93521 17.3265 11.3451 17.3265C12.7549 17.3265 13.9459 14.7613 13.9459 11.7248C13.9459 8.68823 12.7549 6.12303 11.3451 6.12303Z" fill="white"/>
<path d="M10.2447 6.92316C10.5209 6.92316 10.7448 6.69924 10.7448 6.42301C10.7448 6.14678 10.5209 5.92285 10.2447 5.92285C9.96843 5.92285 9.74451 6.14678 9.74451 6.42301C9.74451 6.69924 9.96843 6.92316 10.2447 6.92316Z" fill="white"/>
<path d="M7.3136 15.8289C7.58839 15.8289 7.81115 15.605 7.81115 15.3288C7.81115 15.0525 7.58839 14.8286 7.3136 14.8286C7.0388 14.8286 6.81604 15.0525 6.81604 15.3288C6.81604 15.605 7.0388 15.8289 7.3136 15.8289Z" fill="white"/>
<path d="M16.4487 13.9232C16.7235 13.9232 16.9463 13.6992 16.9463 13.423C16.9463 13.1468 16.7235 12.9229 16.4487 12.9229C16.1739 12.9229 15.9512 13.1468 15.9512 13.423C15.9512 13.6992 16.1739 13.9232 16.4487 13.9232Z" fill="white"/>
<path d="M12.5453 11.7245C12.5453 12.3875 12.0079 12.9249 11.3449 12.9249C10.682 12.9249 10.1445 12.3875 10.1445 11.7245C10.1445 11.0616 10.682 10.5242 11.3449 10.5242C12.0079 10.5242 12.5453 11.0616 12.5453 11.7245Z" fill="white"/>
</g>
<defs>
<clipPath id="clip0_676_16602">
<rect width="12.0038" height="12.0038" fill="white" transform="translate(5.34326 5.7229)"/>
</clipPath>
</defs>
</svg>
