<svg width="24" height="25" viewBox="0 0 24 25" fill="none" xmlns="http://www.w3.org/2000/svg">
<path fill-rule="evenodd" clip-rule="evenodd" d="M7.496 3.33008H16.505C18.987 3.33008 21 5.34208 21 7.82608V16.8351C21 19.3171 18.988 21.3301 16.504 21.3301H7.496C5.013 21.3301 3 19.3181 3 16.8341V7.82608C3 5.34308 5.012 3.33008 7.496 3.33008Z" stroke="white" stroke-opacity="0.7" stroke-width="1.5" stroke-linecap="round" stroke-linejoin="round"/>
<path d="M16.9493 7.04297C16.7633 7.04397 16.6123 7.19497 16.6123 7.38097C16.6123 7.56697 16.7643 7.71797 16.9503 7.71797C17.1363 7.71797 17.2873 7.56697 17.2873 7.38097C17.2883 7.19397 17.1363 7.04297 16.9493 7.04297Z" stroke="white" stroke-opacity="0.7" stroke-width="1.5" stroke-linecap="round" stroke-linejoin="round"/>
<path d="M14.546 9.78489C15.9519 11.1908 15.9519 13.4702 14.546 14.8761C13.1401 16.282 10.8607 16.282 9.45481 14.8761C8.04892 13.4702 8.04892 11.1908 9.45481 9.78489C10.8607 8.379 13.1401 8.379 14.546 9.78489Z" stroke="white" stroke-opacity="0.7" stroke-width="1.5" stroke-linecap="round" stroke-linejoin="round"/>
</svg>
