<svg width="24" height="25" viewBox="0 0 24 25" fill="none" xmlns="http://www.w3.org/2000/svg">
<g clip-path="url(#clip0_1186_2944)">
<mask id="mask0_1186_2944" style="mask-type:luminance" maskUnits="userSpaceOnUse" x="0" y="0" width="24" height="25">
<path d="M23.9583 0.859375H0.437988V24.3797H23.9583V0.859375Z" fill="white"/>
</mask>
<g mask="url(#mask0_1186_2944)">
<mask id="mask1_1186_2944" style="mask-type:luminance" maskUnits="userSpaceOnUse" x="0" y="0" width="24" height="25">
<path d="M23.9583 0.859375H0.437988V24.3797H23.9583V0.859375Z" fill="white"/>
</mask>
<g mask="url(#mask1_1186_2944)">
<mask id="mask2_1186_2944" style="mask-type:luminance" maskUnits="userSpaceOnUse" x="0" y="0" width="24" height="25">
<path d="M23.9583 0.859375H0.437988V24.3797H23.9583V0.859375Z" fill="white"/>
</mask>
<g mask="url(#mask2_1186_2944)">
<mask id="mask3_1186_2944" style="mask-type:alpha" maskUnits="userSpaceOnUse" x="0" y="1" width="24" height="23">
<path d="M0.79487 11.6519C0.309913 12.2062 0.309913 13.0337 0.79487 13.588L9.50047 23.5372C9.89091 23.9835 10.5851 23.9835 10.9755 23.5372L11.913 22.4658L12.9454 23.592C13.3338 24.0158 14.0018 24.0158 14.3902 23.592L23.5374 13.6133C24.0526 13.0513 24.0526 12.1886 23.5374 11.6266L14.3902 1.64787C14.0018 1.22415 13.3338 1.22415 12.9454 1.64787L11.913 2.77409L10.9755 1.70268C10.5851 1.25645 9.89091 1.25645 9.50047 1.70268L0.79487 11.6519Z" fill="white"/>
</mask>
<g mask="url(#mask3_1186_2944)">
<path d="M10.2379 24.3797L-0.0522461 12.6195L10.2379 0.859375L20.5281 12.6195L10.2379 24.3797Z" fill="url(#paint0_linear_1186_2944)"/>
<g filter="url(#filter0_f_1186_2944)">
<path d="M13.6676 1.34961L24.4477 13.1098L13.6676 24.87L8.88456 19.6521C8.54109 19.2774 8.54109 18.7023 8.88456 18.3276L13.0606 13.772C13.404 13.3973 13.404 12.8222 13.0606 12.4476L8.88456 7.89192C8.54109 7.51723 8.54109 6.94216 8.88456 6.56748L13.6676 1.34961Z" fill="black" fill-opacity="0.32"/>
</g>
<g filter="url(#filter1_f_1186_2944)">
<path d="M13.6676 0.953125L24.4477 12.7133L13.6676 24.4735L8.88456 19.2556C8.54109 18.8809 8.54109 18.3058 8.88456 17.9312L13.0606 13.3755C13.404 13.0008 13.404 12.4258 13.0606 12.0511L8.88456 7.49542C8.54109 7.12074 8.54109 6.54567 8.88456 6.17098L13.6676 0.953125Z" fill="black" fill-opacity="0.24"/>
</g>
<path d="M13.6676 0.859375L24.4477 12.6195L13.6676 24.3797L8.88456 19.1619C8.54109 18.7872 8.54109 18.2121 8.88456 17.8374L13.0606 13.2818C13.404 12.9071 13.404 12.332 13.0606 11.9573L8.88456 7.40168C8.54109 7.027 8.54109 6.45192 8.88456 6.07724L13.6676 0.859375Z" fill="url(#paint1_linear_1186_2944)"/>
<path d="M18.3359 7.52776C18.7243 7.10403 19.3923 7.10403 19.7807 7.52776L24.4484 12.6197L19.7807 17.7117C19.3923 18.1355 18.7243 18.1355 18.3359 17.7117L14.5788 13.6131C14.0636 13.051 14.0636 12.1884 14.5788 11.6264L18.3359 7.52776Z" fill="url(#paint2_linear_1186_2944)"/>
</g>
</g>
</g>
</g>
</g>
<defs>
<filter id="filter0_f_1186_2944" x="6.66692" y="-0.61042" width="19.7409" height="27.4406" filterUnits="userSpaceOnUse" color-interpolation-filters="sRGB">
<feFlood flood-opacity="0" result="BackgroundImageFix"/>
<feBlend mode="normal" in="SourceGraphic" in2="BackgroundImageFix" result="shape"/>
<feGaussianBlur stdDeviation="0.980014" result="effect1_foregroundBlur_1186_2944"/>
</filter>
<filter id="filter1_f_1186_2944" x="8.44075" y="0.766922" width="16.1932" height="23.8929" filterUnits="userSpaceOnUse" color-interpolation-filters="sRGB">
<feFlood flood-opacity="0" result="BackgroundImageFix"/>
<feBlend mode="normal" in="SourceGraphic" in2="BackgroundImageFix" result="shape"/>
<feGaussianBlur stdDeviation="0.0931014" result="effect1_foregroundBlur_1186_2944"/>
</filter>
<linearGradient id="paint0_linear_1186_2944" x1="17.833" y1="24.3798" x2="4.11281" y2="-9.18572" gradientUnits="userSpaceOnUse">
<stop stop-color="#742774"/>
<stop offset="1" stop-color="#BB35A4"/>
</linearGradient>
<linearGradient id="paint1_linear_1186_2944" x1="8.27776" y1="0.859435" x2="19.5479" y2="24.3798" gradientUnits="userSpaceOnUse">
<stop stop-color="#E48CC7"/>
<stop offset="1" stop-color="#D467B9"/>
</linearGradient>
<linearGradient id="paint2_linear_1186_2944" x1="15.6283" y1="7.96473" x2="19.0583" y2="18.4998" gradientUnits="userSpaceOnUse">
<stop stop-color="#E9A1CB"/>
<stop offset="1" stop-color="#E48CC7"/>
</linearGradient>
<clipPath id="clip0_1186_2944">
<rect width="23.5203" height="23.5203" fill="white" transform="translate(0.437988 0.859375)"/>
</clipPath>
</defs>
</svg>
