<svg width="18" height="18" viewBox="0 0 18 18" fill="none" xmlns="http://www.w3.org/2000/svg">
<g clip-path="url(#clip0_1186_3024)">
<path d="M2.47145 15.4792L1.0957 0.0439453H16.2289L14.8532 15.4792L8.64554 17.224" fill="#E34F26"/>
<path d="M8.67871 15.8815L13.6784 14.5058L14.8528 1.28516H8.67871" fill="#EF652A"/>
<path d="M8.67885 7.02349H6.16224L5.99446 5.07731H8.67885V3.19824H8.64529H3.91406L3.94762 3.70156L4.41739 8.93612H8.67885V7.02349ZM8.67885 11.9561H8.64529L6.53134 11.3856L6.39712 9.87565H5.39048H4.51805L4.75293 12.862L8.64529 13.9358H8.67885V11.9561Z" fill="#EBEBEB"/>
<path d="M8.64551 7.02349V8.93612H10.9943L10.7595 11.3856L8.64551 11.9561V13.9358L12.5379 12.862L12.5714 12.5265L13.0076 7.52682L13.0747 7.02349H12.5379H8.64551ZM8.64551 3.19824V4.37266V5.07731H13.2425L13.2761 4.67465L13.3767 3.70156L13.4103 3.19824H8.64551Z" fill="white"/>
</g>
<defs>
<clipPath id="clip0_1186_3024">
<rect width="17.1801" height="17.1801" fill="white" transform="translate(0.0888672 0.0439453)"/>
</clipPath>
</defs>
</svg>
