<svg width="24" height="25" viewBox="0 0 24 25" fill="none" xmlns="http://www.w3.org/2000/svg">
<g clip-path="url(#clip0_1204_3801)">
<path fill-rule="evenodd" clip-rule="evenodd" d="M18.2041 6.09116C16.5581 4.44416 14.3691 3.53616 12.0371 3.53516C7.23014 3.53516 3.31914 7.44416 3.31814 12.2492C3.31614 13.7782 3.71714 15.2812 4.48114 16.6062L3.24414 21.1222L7.86614 19.9102C9.14514 20.6062 10.5771 20.9712 12.0331 20.9712H12.0371C16.8421 20.9712 20.7531 17.0612 20.7551 12.2562C20.7561 9.92816 19.8501 7.73916 18.2041 6.09116Z" stroke="white" stroke-opacity="0.7" stroke-width="1.5" stroke-linecap="round" stroke-linejoin="round"/>
<path d="M13.0947 13.89L13.5007 13.487C13.8737 13.117 14.4637 13.07 14.8937 13.372C15.3097 13.664 15.6857 13.926 16.0357 14.17C16.5917 14.556 16.6587 15.348 16.1797 15.826L15.8207 16.185" stroke="white" stroke-opacity="0.7" stroke-width="1.5" stroke-linecap="round" stroke-linejoin="round"/>
<path d="M8.14453 8.51044L8.50353 8.15144C8.98153 7.67344 9.77353 7.74044 10.1595 8.29544C10.4025 8.64544 10.6645 9.02144 10.9575 9.43744C11.2595 9.86744 11.2135 10.4575 10.8425 10.8305L10.4395 11.2365" stroke="white" stroke-opacity="0.7" stroke-width="1.5" stroke-linecap="round" stroke-linejoin="round"/>
<path d="M15.8207 16.1854C14.3397 17.6594 11.8507 16.4074 9.88574 14.4414" stroke="white" stroke-opacity="0.7" stroke-width="1.5" stroke-linecap="round" stroke-linejoin="round"/>
<path d="M9.88807 14.4448C7.92307 12.4788 6.67107 9.99077 8.14507 8.50977" stroke="white" stroke-opacity="0.7" stroke-width="1.5" stroke-linecap="round" stroke-linejoin="round"/>
<path d="M10.4404 11.2344C10.7594 11.7374 11.1684 12.2354 11.6304 12.6974L11.6324 12.6994C12.0944 13.1614 12.5924 13.5704 13.0954 13.8894" stroke="white" stroke-opacity="0.7" stroke-width="1.5" stroke-linecap="round" stroke-linejoin="round"/>
</g>
<defs>
<clipPath id="clip0_1204_3801">
<rect width="24" height="24" fill="white" transform="translate(0 0.330078)"/>
</clipPath>
</defs>
</svg>
