<svg width="22" height="19" viewBox="0 0 22 19" fill="none" xmlns="http://www.w3.org/2000/svg">
<g clip-path="url(#clip0_1204_3790)">
<path fill-rule="evenodd" clip-rule="evenodd" d="M20.583 3.70344C20.354 2.69944 19.676 1.90744 18.814 1.63544C17.255 1.14844 11 1.14844 11 1.14844C11 1.14844 4.748 1.14844 3.186 1.63544C2.327 1.90344 1.649 2.69544 1.417 3.70344C1 5.52544 1 9.33044 1 9.33044C1 9.33044 1 13.1355 1.417 14.9575C1.646 15.9615 2.324 16.7535 3.186 17.0255C4.748 17.5125 11 17.5125 11 17.5125C11 17.5125 17.255 17.5125 18.814 17.0255C19.673 16.7575 20.351 15.9655 20.583 14.9575C21 13.1355 21 9.33044 21 9.33044C21 9.33044 21 5.52544 20.583 3.70344Z" stroke="white" stroke-opacity="0.7" stroke-width="1.5" stroke-linecap="round" stroke-linejoin="round"/>
<path fill-rule="evenodd" clip-rule="evenodd" d="M9.00195 12.3301L14.198 9.33008L9.00195 6.33008V12.3301Z" stroke="white" stroke-opacity="0.7" stroke-width="1.5" stroke-linecap="round" stroke-linejoin="round"/>
</g>
<defs>
<clipPath id="clip0_1204_3790">
<rect width="22" height="18" fill="white" transform="translate(0 0.330078)"/>
</clipPath>
</defs>
</svg>
