<svg width="25" height="23" viewBox="0 0 25 23" fill="none" xmlns="http://www.w3.org/2000/svg">
<g clip-path="url(#clip0_1186_2971)">
<path d="M15.2336 12.748L13.541 0.335938H13.4146C7.26008 0.353905 2.27529 5.33869 2.25732 11.4932V11.6196L15.2336 12.748Z" fill="#ED6C47"/>
<path d="M13.6679 0.335938H13.5415V11.6196L19.1833 13.8764L24.8252 11.6196V11.4932C24.8072 5.33869 19.8224 0.353905 13.6679 0.335938Z" fill="#FF8F6B"/>
<path d="M24.8247 11.6201V11.7442C24.807 17.9002 19.8211 22.8861 13.6651 22.9038H13.4169C7.26096 22.8861 2.27499 17.9002 2.25732 11.7442V11.6201H24.8247Z" fill="#D35230"/>
<path opacity="0.1" d="M14.1052 5.88207V17.9218C14.1024 18.3401 13.8489 18.716 13.462 18.8752C13.3389 18.9273 13.2065 18.9542 13.0727 18.9542H4.92029C4.76232 18.7737 4.60999 18.5819 4.46894 18.39C3.03157 16.4726 2.25547 14.1403 2.25734 11.7439V11.4957C2.25404 9.33421 2.88575 7.21936 4.07401 5.41379C4.19813 5.22197 4.32789 5.03015 4.46894 4.84961H13.0727C13.6412 4.85392 14.1009 5.31366 14.1052 5.88207Z" fill="black"/>
<path opacity="0.2" d="M13.541 6.44653V18.4862C13.541 18.62 13.5141 18.7523 13.4621 18.8755C13.3028 19.2623 12.9269 19.5159 12.5086 19.5187H5.4337C5.2552 19.3375 5.08392 19.1492 4.92029 18.9545C4.76232 18.774 4.60999 18.5821 4.46894 18.3903C3.03156 16.4729 2.25547 14.1406 2.25734 11.7442V11.496C2.25404 9.33448 2.88575 7.21963 4.07401 5.41406H12.5086C13.077 5.41836 13.5367 5.8781 13.541 6.44653Z" fill="black"/>
<path opacity="0.2" d="M13.541 6.44651V17.3578C13.5367 17.9263 13.077 18.386 12.5086 18.3903H4.46894C3.03157 16.4728 2.25547 14.1406 2.25734 11.7442V11.496C2.25404 9.33448 2.88575 7.21963 4.07401 5.41406H12.5086C13.077 5.41835 13.5367 5.87808 13.541 6.44651Z" fill="black"/>
<path opacity="0.2" d="M12.9768 6.44651V17.3578C12.9725 17.9263 12.5128 18.386 11.9444 18.3903H4.46894C3.03157 16.4728 2.25547 14.1406 2.25734 11.7442V11.496C2.25404 9.33448 2.88575 7.21963 4.07401 5.41406H11.9444C12.5128 5.41835 12.9725 5.87808 12.9768 6.44651Z" fill="black"/>
<path d="M1.59909 5.41406H11.9428C12.514 5.41406 12.977 5.87707 12.977 6.44821V16.792C12.977 17.3631 12.514 17.8261 11.9428 17.8261H1.59909C1.02795 17.8261 0.564941 17.3631 0.564941 16.792V6.44821C0.564941 5.87707 1.02795 5.41406 1.59909 5.41406Z" fill="url(#paint0_linear_1186_2971)"/>
<path d="M6.88405 8.17149C7.5574 8.12606 8.22494 8.32164 8.76731 8.72327C9.21966 9.12712 9.46137 9.71642 9.42288 10.3216C9.43028 10.7423 9.31817 11.1565 9.09961 11.516C8.87834 11.8693 8.55954 12.1511 8.18168 12.3273C7.7497 12.5282 7.27742 12.6274 6.80111 12.6173H5.49277V15.0489H4.15283V8.17149H6.88405ZM5.49165 11.5668H6.64485C7.01044 11.5936 7.37318 11.4854 7.66433 11.2627C7.90515 11.0317 8.03136 10.7059 8.00905 10.373C8.00905 9.61506 7.56861 9.23612 6.68773 9.23612H5.49166V11.5668H5.49165Z" fill="white"/>
</g>
<defs>
<linearGradient id="paint0_linear_1186_2971" x1="2.72117" y1="4.606" x2="10.8208" y2="18.6342" gradientUnits="userSpaceOnUse">
<stop stop-color="#CA4C28"/>
<stop offset="0.5" stop-color="#C5401E"/>
<stop offset="1" stop-color="#B62F14"/>
</linearGradient>
<clipPath id="clip0_1186_2971">
<rect width="24.2599" height="22.5674" fill="white" transform="translate(0.564941 0.335938)"/>
</clipPath>
</defs>
</svg>
