<svg width="19" height="19" viewBox="0 0 19 19" fill="none" xmlns="http://www.w3.org/2000/svg">
<g clip-path="url(#clip0_1186_3031)">
<path d="M2.87239 16.8507L1.4248 0.614258H17.3313L15.8822 16.8481L9.36834 18.654L2.87239 16.8507Z" fill="#264DE4"/>
<path d="M14.6414 15.814L15.8798 1.94141H9.37793V17.2733L14.6414 15.814Z" fill="#2965F1"/>
<path d="M4.74341 7.9641L4.92187 9.95541H9.37807V7.9641H4.74341ZM4.5658 5.92494H9.37807V3.93359H4.38477L4.5658 5.92494ZM9.37807 13.1358L9.36933 13.1381L7.15157 12.5393L7.00983 10.9511H5.0108L5.28982 14.0778L9.36891 15.2102L9.37807 15.2076V13.1358Z" fill="#EBEBEB"/>
<path d="M9.37109 7.9641V9.95541H11.8232L11.5921 12.538L9.37109 13.1374V15.2092L13.4534 14.0778L13.4834 13.7413L13.9513 8.4988L13.9999 7.9641L14.3594 3.93359H9.37109V5.92494H12.1771L11.9958 7.9641H9.37109Z" fill="white"/>
</g>
<defs>
<clipPath id="clip0_1186_3031">
<rect width="18.0397" height="18.0397" fill="white" transform="translate(0.358398 0.614258)"/>
</clipPath>
</defs>
</svg>
